<?xml version="1.0" standalone="no"?>
<!DOCTYPE svg PUBLIC "-//W3C//DTD SVG 20010904//EN"
 "http://www.w3.org/TR/2001/REC-SVG-20010904/DTD/svg10.dtd">
<svg version="1.0" xmlns="http://www.w3.org/2000/svg"
 width="591.000000pt" height="596.000000pt" viewBox="0 0 591.000000 596.000000"
 preserveAspectRatio="xMidYMid meet">

<g transform="translate(0.000000,596.000000) scale(0.100000,-0.100000)"
fill="#000000" stroke="none">
<path d="M2695 5949 c-186 -16 -414 -61 -602 -119 -92 -28 -103 -47 -74 -136
11 -33 40 -96 64 -140 24 -43 67 -124 96 -179 78 -149 72 -144 122 -107 40 30
67 34 52 9 -4 -8 -1 -7 9 1 17 14 34 0 23 -18 -9 -15 2 -12 19 6 17 16 41 10
30 -8 -3 -5 8 -2 25 6 17 9 31 24 31 34 0 14 8 17 38 16 42 -2 71 9 53 20 -6
4 -11 13 -11 19 0 7 4 6 10 -3 9 -13 14 -10 36 14 19 21 22 31 13 37 -7 4 -18
5 -26 2 -7 -3 -13 -1 -13 5 0 26 140 31 197 7 39 -17 58 -11 30 9 -9 7 -17 19
-17 25 0 9 30 11 123 6 139 -7 219 -19 295 -42 50 -15 53 -15 66 2 7 10 11 26
9 35 -3 10 7 30 22 46 22 23 28 26 36 14 7 -13 10 -13 18 -1 7 10 9 11 13 0 3
-9 13 -6 36 11 l32 23 20 -23 c26 -30 25 -43 -6 -77 -15 -15 -33 -38 -42 -51
-9 -15 -21 -21 -32 -17 -30 10 -32 -12 -3 -30 106 -70 257 -215 308 -297 33
-52 49 -56 50 -13 0 45 21 40 46 -11 l22 -47 -23 -19 -23 -19 23 -42 c32 -59
33 -59 56 -11 16 33 18 44 8 44 -9 0 -14 12 -14 33 0 18 -5 38 -12 45 -9 9 -8
12 5 12 9 0 17 -4 17 -10 0 -5 6 -7 14 -4 14 5 31 -50 20 -67 -3 -5 7 -9 21
-9 30 0 61 -14 92 -43 21 -19 24 -19 41 -4 21 20 32 22 32 6 0 -5 -4 -8 -9 -4
-11 6 -9 -35 3 -53 9 -15 1 -15 -24 -2 -15 8 -24 5 -45 -17 -14 -15 -25 -39
-26 -53 -1 -43 2 -155 5 -158 2 -1 24 7 50 19 59 26 80 20 74 -21 -4 -29 -3
-30 31 -30 20 0 41 4 46 8 14 10 38 65 25 57 -5 -3 -10 -2 -10 3 0 6 -9 8 -20
5 -11 -3 -20 -10 -20 -15 0 -5 -4 -6 -10 -3 -6 4 -3 16 7 31 9 14 16 37 17 52
1 20 7 28 24 30 24 4 30 -16 10 -37 -11 -10 -10 -11 5 -6 9 4 17 14 17 21 0
24 36 87 70 121 30 31 34 58 7 47 -8 -3 -13 4 -13 15 0 15 3 17 13 9 7 -6 13
-7 13 -2 0 5 7 1 14 -9 12 -16 15 -16 42 5 16 13 37 30 46 38 9 9 34 22 55 29
21 7 60 29 86 48 26 18 52 31 57 28 4 -3 6 3 3 13 -2 10 5 26 18 37 l22 20 -8
-23 c-5 -19 -3 -25 14 -29 12 -3 21 -8 21 -12 -1 -11 -50 -42 -59 -37 -8 5
-113 -78 -119 -94 -2 -4 7 -10 19 -13 11 -3 19 -9 16 -14 -3 -4 9 -9 26 -9 18
-1 39 -3 48 -5 11 -3 74 52 173 150 130 126 155 156 145 167 -7 8 -64 57 -128
108 -339 274 -713 461 -1127 565 -158 41 -214 48 -214 30 0 -19 -40 -83 -47
-76 -3 4 2 24 11 47 9 22 16 42 16 44 0 8 -55 16 -205 31 -170 16 -379 18
-540 4z m1000 -99 c3 -5 0 -10 -7 -11 -10 0 -10 -2 0 -6 15 -6 6 -23 -13 -23
-15 0 -28 27 -19 41 7 12 31 11 39 -1z m-324 -143 c-8 -8 -11 -5 -11 9 0 27
14 41 18 19 2 -9 -1 -22 -7 -28z m143 -96 c7 -10 -18 -34 -27 -25 -7 8 3 34
13 34 5 0 11 -4 14 -9z m-454 -22 c0 -5 -4 -9 -10 -9 -5 0 -10 7 -10 16 0 8 5
12 10 9 6 -3 10 -10 10 -16z m135 -9 c3 -5 -1 -10 -10 -10 -9 0 -13 5 -10 10
3 6 8 10 10 10 2 0 7 -4 10 -10z m132 -22 c-3 -8 -6 -5 -6 6 -1 11 2 17 5 13
3 -3 4 -12 1 -19z m43 -14 c0 -8 -5 -12 -10 -9 -6 4 -8 11 -5 16 9 14 15 11
15 -7z m-417 -28 c7 -18 -1 -26 -28 -26 -12 0 -24 3 -28 6 -12 12 6 34 28 34
13 0 25 -6 28 -14z m-664 -36 c3 -25 3 -25 -18 -6 -26 23 -27 39 -3 34 9 -2
19 -14 21 -28z m361 9 c0 -25 -33 -22 -38 4 -2 12 3 17 17 17 15 0 21 -6 21
-21z m610 -24 c0 -8 -4 -15 -10 -15 -5 0 -10 7 -10 15 0 8 5 15 10 15 6 0 10
-7 10 -15z m360 -22 c0 -7 -4 -13 -10 -13 -5 0 -10 12 -10 28 0 21 2 24 10 12
5 -8 10 -21 10 -27z m-1430 -8 c0 -5 -5 -3 -10 5 -5 8 -10 20 -10 25 0 6 5 3
10 -5 5 -8 10 -19 10 -25z m2002 -26 c23 -43 23 -98 1 -144 -15 -31 -21 -35
-55 -35 -21 0 -38 -4 -38 -10 0 -5 -9 -10 -20 -10 -21 0 -28 24 -10 35 6 4 4
17 -6 36 -17 33 -12 101 10 131 12 16 71 38 91 34 6 -1 18 -18 27 -37z m-1572
-29 c0 -5 -5 -10 -11 -10 -5 0 -7 5 -4 10 3 6 8 10 11 10 2 0 4 -4 4 -10z
m-140 -90 c0 -5 -2 -10 -4 -10 -3 0 -8 5 -11 10 -3 6 -1 10 4 10 6 0 11 -4 11
-10z m2034 -101 c-3 -5 -10 -7 -15 -4 -5 4 -12 -7 -15 -23 -6 -29 -53 -96 -54
-76 0 5 9 20 20 32 11 12 20 30 20 41 0 23 28 54 41 45 5 -3 7 -10 3 -15z
m386 -8 c0 -5 -7 -14 -15 -21 -12 -10 -15 -10 -15 2 0 8 3 18 7 21 9 10 23 9
23 -2z m-1108 -66 c-2 -14 -8 -25 -13 -25 -12 0 -11 7 1 31 14 26 18 24 12 -6z
m-68 -11 c10 -27 7 -56 -6 -52 -15 5 -24 68 -10 68 6 0 13 -7 16 -16z m866 1
c0 -8 -4 -15 -10 -15 -5 0 -7 7 -4 15 4 8 8 15 10 15 2 0 4 -7 4 -15z m-403
-21 c3 -8 -1 -23 -10 -32 -15 -14 -17 -14 -23 1 -8 21 1 47 16 47 6 0 13 -7
17 -16z m243 -18 c0 -3 -4 -8 -10 -11 -5 -3 -10 -1 -10 4 0 6 5 11 10 11 6 0
10 -2 10 -4z m-153 -51 c1 -16 1 -16 -3 -2 -3 9 -10 17 -15 17 -6 0 -7 -4 -4
-10 3 -5 2 -10 -4 -10 -13 0 -22 16 -14 24 13 13 38 1 40 -19z m123 21 c0 -2
-7 -9 -15 -16 -13 -11 -14 -10 -9 4 5 14 24 23 24 12z m-67 -35 c3 -14 1 -18
-9 -14 -15 6 -18 16 -7 26 9 10 10 9 16 -12z m-298 -21 c-3 -5 -10 -10 -16
-10 -5 0 -9 5 -9 10 0 6 7 10 16 10 8 0 12 -4 9 -10z m275 -30 c0 -5 -4 -10
-10 -10 -5 0 -10 5 -10 10 0 6 5 10 10 10 6 0 10 -4 10 -10z m-75 -80 c3 -6
-1 -7 -9 -4 -18 7 -21 14 -7 14 6 0 13 -4 16 -10z m-71 -59 c3 -5 -3 -20 -14
-34 -17 -22 -26 -25 -58 -20 -20 3 -41 9 -46 14 -14 13 18 37 55 42 19 2 39 5
46 5 6 1 14 -2 17 -7z m-36 -93 c-4 -27 -28 -36 -28 -10 0 20 8 32 22 32 5 0
8 -10 6 -22z m-68 -39 c0 -5 -4 -9 -8 -9 -5 0 -9 7 -9 15 0 8 4 12 9 9 4 -3 8
-9 8 -15z"/>
<path d="M1898 5753 c7 -3 16 -2 19 1 4 3 -2 6 -13 5 -11 0 -14 -3 -6 -6z"/>
<path d="M1929 5710 c-20 -11 -132 -16 -148 -6 -20 13 -242 -101 -413 -211
-37 -24 -70 -48 -73 -53 -3 -5 8 -16 24 -25 88 -45 212 -178 266 -285 33 -67
41 -102 10 -50 -54 91 -81 103 -195 84 l-36 -6 13 -81 c6 -45 12 -103 12 -129
1 -44 4 -49 49 -83 26 -20 63 -59 82 -87 19 -28 40 -53 45 -55 13 -4 46 49 75
121 24 59 24 59 32 30 21 -75 0 -269 -41 -388 -27 -75 -26 -78 7 -98 20 -13
23 -18 9 -18 -38 0 -55 21 -50 62 6 44 -4 48 -36 14 -21 -22 -22 -27 -10 -60
7 -20 18 -36 24 -36 19 -1 78 -57 71 -68 -19 -31 -63 5 -96 81 -12 26 -25 45
-31 42 -5 -4 -20 -27 -33 -53 -24 -47 -99 -112 -151 -132 -21 -8 -28 -5 -51
25 -34 45 -57 48 -41 5 15 -39 3 -49 -27 -21 -14 13 -31 21 -38 18 -9 -3 -7
-7 7 -13 10 -4 32 -20 49 -36 35 -34 46 -35 46 -7 0 17 3 19 13 10 8 -6 17 -8
20 -4 4 3 7 1 7 -4 0 -6 -34 -45 -75 -86 -74 -73 -89 -95 -60 -84 8 4 24 -6
37 -22 13 -15 32 -30 42 -34 42 -16 116 -71 105 -78 -8 -5 -8 -8 0 -13 6 -4
11 -2 11 4 0 7 6 10 13 8 6 -3 12 -11 12 -18 0 -8 16 -29 35 -48 l35 -34 -50
28 c-71 39 -105 64 -105 76 0 5 7 7 16 4 14 -5 15 -4 4 9 -12 14 -15 14 -30 0
-9 -8 -21 -15 -27 -15 -18 0 -44 37 -37 54 5 14 2 16 -17 11 -31 -7 -75 16
-71 38 2 14 -1 15 -23 7 -30 -11 -85 -2 -92 16 -9 25 -77 61 -103 54 -19 -4
-22 -8 -11 -15 11 -6 9 -10 -10 -19 -31 -12 -62 -14 -70 -2 -4 5 -15 6 -25 2
-18 -7 -18 -8 1 -22 12 -10 31 -13 49 -10 21 5 27 3 23 -8 -6 -16 12 -26 58
-32 17 -2 39 -8 50 -14 11 -5 32 -14 47 -19 28 -11 58 -51 38 -51 -7 0 -9 -8
-5 -19 4 -13 0 -20 -14 -24 -26 -6 -45 7 -38 28 10 24 -21 65 -50 65 -31 0
-28 -10 39 -145 70 -138 78 -149 92 -130 13 18 46 11 46 -10 0 -15 -28 -28
-42 -19 -11 7 50 -92 89 -144 l24 -32 32 22 c70 50 218 20 260 -52 27 -45 20
-44 -25 4 -54 56 -93 65 -178 39 -34 -10 -73 -28 -86 -40 -61 -56 5 -174 105
-189 38 -6 56 -17 104 -64 31 -32 57 -60 57 -64 0 -3 -9 -6 -21 -6 -29 0 -14
-17 40 -44 26 -14 54 -32 62 -42 13 -15 12 -16 -11 -9 -14 4 -29 12 -35 19 -5
6 -28 11 -50 10 -22 -1 -45 3 -52 8 -19 15 -73 18 -94 5 -26 -16 -24 -27 5
-27 16 0 32 -11 46 -30 12 -17 28 -30 37 -30 9 0 13 -6 9 -15 -3 -9 1 -18 9
-21 21 -8 19 -22 -5 -29 -11 -3 -20 -13 -20 -22 0 -13 3 -13 15 -3 9 7 18 11
20 8 3 -3 -1 -10 -8 -17 -12 -9 -9 -17 18 -45 18 -19 35 -48 37 -65 l4 -31
-52 50 c-70 66 -80 64 -16 -4 63 -66 80 -117 55 -167 -9 -19 -25 -47 -36 -62
-10 -15 -20 -33 -21 -40 -11 -60 -18 -59 -41 8 -13 36 -35 82 -50 101 -32 42
-45 46 -15 5 30 -43 46 -86 64 -171 15 -73 15 -75 -5 -90 -20 -16 -20 -16 15
-52 44 -45 54 -80 32 -114 -17 -24 -53 -44 -82 -44 -29 0 -74 56 -74 92 0 29
-3 34 -27 36 -15 1 -31 8 -35 15 -8 11 -5 102 7 227 3 33 1 28 -9 -20 -8 -36
-17 -101 -22 -145 -4 -44 -9 -71 -11 -60 -4 24 -103 68 -143 63 -36 -4 -36 22
-2 97 32 67 97 146 147 176 17 11 25 19 18 19 -21 0 -97 -65 -135 -115 -20
-27 -47 -75 -59 -107 -12 -32 -23 -58 -25 -58 -1 0 -15 5 -31 12 -15 6 -30 12
-33 12 -20 4 -69 50 -63 59 4 7 -2 5 -12 -3 -17 -14 -18 -13 -12 33 11 77 70
179 146 249 60 56 62 58 19 30 -122 -83 -208 -256 -188 -375 22 -126 56 -199
131 -281 45 -50 50 -58 38 -74 -13 -15 -12 -16 3 -4 14 11 23 9 65 -20 49 -33
155 -81 206 -92 23 -6 26 -9 17 -25 -10 -20 -5 -27 42 -50 14 -7 31 -10 37 -7
18 11 13 34 -9 41 -22 7 -27 39 -9 51 7 4 16 0 20 -9 7 -12 22 -15 66 -12 32
2 59 8 61 14 2 6 -1 11 -7 11 -6 0 -11 9 -11 21 0 15 4 19 16 15 8 -3 24 -1
35 4 15 9 21 7 25 -5 4 -9 2 -21 -4 -27 -8 -8 -7 -15 6 -25 16 -12 16 -14 0
-24 -25 -14 -24 -43 2 -36 27 7 25 -5 -6 -34 -24 -22 -26 -23 -38 -6 -7 9 -18
17 -25 17 -6 0 -11 5 -11 10 0 6 7 10 16 10 9 0 14 7 12 17 -6 30 -22 23 -56
-22 -34 -44 -34 -44 -16 -77 9 -18 21 -41 26 -51 12 -25 0 -58 -20 -55 -11 2
-18 -5 -20 -19 -4 -27 15 -30 34 -6 11 17 14 16 39 -11 l27 -29 -94 7 c-133 9
-136 10 -158 34 -25 26 -25 32 -2 33 9 0 3 5 -13 10 -27 7 -30 13 -31 48 -1
35 1 40 27 45 21 4 29 11 29 26 0 11 -4 20 -9 20 -5 0 -14 13 -19 29 -23 66
-35 60 -203 -103 -149 -145 -247 -247 -223 -233 7 4 27 9 45 11 19 3 41 7 50
11 10 4 27 -3 43 -17 l27 -23 -26 -27 c-14 -16 -32 -28 -40 -28 -16 0 -38 -35
-33 -52 2 -6 18 -12 36 -12 32 -1 43 8 20 17 -7 2 -10 7 -7 11 4 4 14 -1 24
-10 16 -16 18 -16 26 -1 6 9 10 20 10 24 3 33 20 41 72 36 34 -3 62 -1 78 7
52 28 -79 -88 -136 -119 -47 -27 -130 -78 -175 -109 -15 -10 35 -22 95 -22 50
0 78 -5 94 -17 14 -9 21 -11 17 -5 -4 8 -1 12 10 12 34 0 54 34 90 149 20 64
37 118 39 119 2 2 35 -15 73 -38 86 -51 117 -56 236 -40 l94 12 314 317 c172
174 334 339 359 366 45 48 95 97 247 240 39 38 75 65 79 62 3 -4 -62 -76 -145
-160 -83 -83 -161 -165 -173 -180 l-22 -29 46 3 c26 2 49 0 52 -3 4 -3 -19 -6
-51 -6 l-56 1 -190 -189 c-104 -104 -243 -246 -308 -315 -111 -117 -118 -127
-102 -142 35 -33 44 -47 30 -48 -7 -1 -17 -1 -21 0 -5 1 -6 -3 -2 -8 3 -6 13
-7 22 -4 11 4 14 3 9 -5 -4 -7 -2 -12 5 -12 8 0 8 -4 1 -13 -11 -13 7 -47 26
-47 5 0 12 -7 16 -15 13 -34 23 -11 24 52 2 121 19 244 36 261 23 23 28 11 34
-72 4 -67 6 -73 20 -60 21 22 62 13 85 -18 21 -28 19 -43 -15 -90 -10 -14 -10
-21 4 -34 23 -23 56 -13 108 34 40 35 44 42 44 89 1 37 -4 57 -18 72 -19 21
-19 21 2 21 11 0 23 6 25 13 4 9 8 8 16 -3 15 -21 13 -30 -4 -24 -8 4 -15 1
-15 -5 0 -20 38 -12 54 11 22 31 20 51 -3 45 -17 -4 -18 -2 -9 24 11 33 30 49
36 31 2 -7 10 -12 17 -12 23 0 28 20 11 39 -16 18 -15 19 15 23 36 6 72 -21
63 -47 -4 -8 -1 -15 5 -15 6 0 11 -8 11 -17 0 -13 3 -14 12 -5 21 21 30 13 22
-20 -6 -30 -5 -31 10 -19 10 8 14 21 11 32 -4 11 -2 19 5 19 6 0 8 -4 5 -10
-3 -5 1 -10 9 -10 20 0 21 -16 2 -23 -14 -5 -32 -34 -55 -84 -6 -13 -15 -23
-21 -23 -6 0 -8 -5 -5 -10 3 -6 1 -10 -5 -10 -7 0 -9 7 -6 16 15 39 -49 84
-88 62 -16 -9 -22 -63 -8 -72 7 -4 6 -45 -5 -173 -3 -44 -8 -60 -17 -57 -9 3
-11 -4 -8 -25 5 -34 38 -37 36 -3 -1 18 2 20 17 12 10 -6 27 -10 38 -10 18 0
21 6 21 39 0 31 -4 40 -22 45 l-23 7 23 16 c12 8 22 23 22 33 0 23 25 43 56
45 29 1 49 19 72 66 20 40 46 48 73 23 18 -16 20 -16 39 1 17 16 24 16 47 6
19 -9 23 -15 14 -20 -7 -5 -10 -18 -6 -33 6 -22 2 -25 -39 -35 -38 -8 -46 -8
-46 4 0 8 -4 12 -10 8 -6 -3 -5 -15 2 -30 12 -26 28 -33 28 -12 0 8 3 8 9 -2
6 -9 6 -22 0 -33 -13 -24 -5 -50 21 -66 18 -11 23 -8 54 40 18 29 40 67 49 85
15 28 15 32 1 37 -9 3 -19 4 -24 1 -4 -3 -14 3 -21 12 -10 12 -10 15 -1 9 10
-6 10 -2 0 18 -14 32 1 65 37 83 22 10 26 8 37 -15 17 -35 44 -39 75 -10 21
19 16 6 -23 -67 -26 -49 -65 -118 -86 -152 -21 -35 -34 -63 -29 -63 10 0 81
113 81 129 0 5 6 14 14 18 7 4 21 23 30 42 14 27 22 32 43 28 13 -2 41 -1 61
3 20 4 54 11 75 14 20 4 37 12 37 17 0 6 -9 7 -21 4 -15 -5 -20 -3 -17 6 3 8
23 16 45 19 29 4 48 13 62 32 12 14 21 29 21 32 0 10 45 51 52 49 5 -2 7 0 7
5 -3 20 2 59 11 72 7 12 12 12 22 2 9 -9 9 -15 0 -24 -7 -7 -12 -20 -12 -29 0
-15 5 -16 33 -8 17 5 65 12 105 15 62 4 72 3 72 -11 0 -10 -9 -19 -20 -22 -29
-8 -25 -40 10 -75 17 -16 27 -34 24 -40 -4 -6 8 0 25 13 27 20 32 29 27 53 -6
30 -10 30 60 10 14 -4 30 4 53 25 18 17 38 31 43 31 6 0 5 6 -2 15 -8 9 -10
27 -6 46 8 42 -17 87 -61 105 -27 12 -33 19 -28 32 4 9 7 25 7 34 0 10 3 18 9
18 5 0 9 -7 9 -15 0 -8 5 -15 10 -15 6 0 10 4 10 9 0 5 9 7 21 4 13 -4 16 -8
10 -13 -15 -8 -4 -37 16 -44 19 -7 43 11 43 31 0 8 -9 17 -21 20 -16 4 -17 8
-7 14 10 7 10 9 1 9 -16 0 -17 37 -2 42 16 5 21 61 6 70 -9 5 -9 10 0 19 10
10 18 10 37 0 29 -16 50 -6 43 20 -4 14 0 19 14 19 10 0 19 5 19 10 0 6 -6 10
-14 10 -13 0 -30 39 -20 49 6 6 171 -157 235 -232 27 -32 49 -67 49 -78 0 -11
-18 -39 -41 -63 -36 -40 -44 -44 -74 -39 -26 4 -36 2 -41 -11 -3 -9 -1 -22 5
-29 14 -17 -18 -63 -93 -135 -31 -30 -56 -58 -56 -63 0 -15 -16 -10 -35 11
-10 11 -34 23 -53 26 -31 6 -39 3 -65 -26 -24 -26 -28 -38 -23 -64 8 -41 60
-118 132 -195 68 -74 104 -95 146 -86 27 6 29 5 20 -10 -5 -10 -24 -20 -43
-22 -18 -2 -40 -10 -49 -18 -23 -21 -33 -19 -27 5 3 10 0 18 -5 17 -6 -1 -13
4 -15 11 -3 6 0 12 6 12 6 0 11 7 11 15 0 8 -4 15 -10 15 -5 0 -10 -5 -10 -11
0 -21 -44 21 -54 53 -6 17 -17 34 -25 36 -10 3 -12 0 -8 -11 9 -24 -21 -29
-44 -6 -11 11 -25 17 -31 13 -6 -4 -17 1 -25 11 -17 25 -16 7 2 -25 8 -14 14
-34 15 -44 0 -11 10 -30 22 -43 25 -26 16 -29 -24 -9 -26 14 -28 13 -28 -5 0
-10 -4 -19 -10 -19 -5 0 -10 -5 -10 -11 0 -8 4 -8 15 1 8 6 23 9 35 5 21 -7
26 -20 11 -29 -5 -3 -7 -15 -4 -26 7 -25 -18 -36 -46 -21 -17 10 -20 19 -16
54 8 75 11 91 22 94 7 3 6 14 -4 35 -15 28 -18 30 -56 24 -32 -6 -44 -3 -62
14 -14 13 -25 17 -29 11 -4 -5 -2 -12 4 -16 17 -10 12 -35 -6 -28 -13 5 -15 3
-7 -13 6 -10 8 -24 6 -31 -5 -14 14 -26 28 -17 8 4 7 9 -2 15 -11 7 -11 9 1 9
22 0 50 -53 38 -74 -11 -19 -38 -21 -58 -3 -7 6 4 -10 26 -38 22 -27 46 -58
53 -68 11 -14 12 -23 2 -44 -14 -31 -24 -22 -41 37 -9 32 -81 122 -105 131 -6
2 -33 40 -60 84 l-50 80 -3 -59 c-3 -48 1 -65 18 -88 16 -22 18 -28 6 -28 -20
0 -60 75 -66 125 -5 38 -7 40 -42 43 -27 2 -38 -2 -38 -12 0 -8 7 -16 15 -20
8 -3 15 -12 15 -20 0 -7 7 -17 16 -20 17 -7 11 -40 -12 -66 -9 -10 -10 -20 -4
-30 14 -23 12 -66 -4 -79 -32 -26 -79 31 -62 75 8 21 -17 60 -44 69 -17 5 -20
12 -15 35 5 23 2 28 -17 33 -31 8 -41 -4 -29 -36 10 -26 9 -27 -19 -27 -17 0
-30 5 -30 10 0 6 5 10 10 10 6 0 10 8 10 18 0 13 -2 14 -9 4 -16 -26 -21 30
-5 66 23 56 10 47 -31 -20 -20 -35 -46 -77 -56 -93 -13 -21 -15 -35 -9 -45 8
-12 11 -13 19 -1 5 7 6 21 4 31 -5 20 20 22 51 4 15 -9 16 -15 6 -33 -9 -18
-14 -20 -26 -10 -13 10 -17 10 -25 -2 -5 -8 -9 -18 -9 -24 0 -19 60 -114 82
-129 22 -16 22 -16 -10 -16 -33 0 -40 -8 -21 -27 7 -7 9 -25 5 -46 -8 -44
-108 -147 -142 -147 -13 0 -24 -5 -24 -12 0 -9 -3 -9 -12 0 -7 7 -20 12 -30
12 -11 0 -15 5 -12 15 4 9 -3 19 -20 26 -14 7 -23 17 -19 23 3 6 3 8 -2 4 -4
-4 -14 -3 -21 3 -9 7 -26 -12 -67 -78 -198 -322 -200 -325 -186 -334 11 -8 10
-9 -3 -7 -12 2 -33 -20 -67 -71 -28 -41 -48 -78 -46 -81 15 -25 378 -107 580
-132 158 -19 547 -16 705 6 456 62 891 227 1265 479 134 91 267 199 256 210
-18 18 -13 25 13 23 75 -9 46 41 -84 144 -86 67 -105 93 -77 103 9 3 9 7 -1
20 -10 11 -23 14 -45 10 -41 -8 -40 -6 -20 -41 17 -29 17 -31 -1 -51 -21 -23
-16 -37 9 -28 8 4 15 16 15 27 0 27 16 25 45 -5 33 -32 31 -57 -4 -95 -35 -39
-60 -35 -92 16 -16 26 -19 38 -10 47 16 16 14 23 -14 35 -26 12 -34 47 -13 54
6 2 9 12 5 21 -5 13 -13 16 -32 11 -22 -5 -25 -3 -25 18 0 32 10 41 27 26 11
-9 16 -9 23 2 11 18 3 30 -20 30 -10 0 -27 12 -38 27 l-20 28 5 -28 c5 -27 4
-28 -23 -21 -16 4 -35 11 -41 17 -9 6 -13 6 -13 -2 0 -6 -6 -11 -14 -11 -8 0
-17 -6 -19 -12 -4 -10 -7 -10 -15 0 -5 7 -16 10 -25 6 -12 -4 -17 -1 -17 10 0
9 -4 16 -10 16 -5 0 -10 -9 -10 -20 0 -11 6 -20 13 -20 8 0 7 -3 -3 -9 -8 -6
-17 -8 -21 -5 -19 11 3 -41 33 -79 64 -82 88 -103 99 -87 8 13 10 13 19 0 5
-8 10 -22 10 -30 0 -9 18 -40 40 -69 22 -30 38 -56 35 -59 -3 -3 -31 19 -61
49 -31 30 -58 49 -61 43 -2 -6 -14 -25 -26 -41 -26 -36 -42 -32 -83 16 l-28
34 31 27 c17 15 37 30 44 32 11 4 8 12 -10 32 -30 32 -40 33 -34 2 7 -37 -36
-63 -77 -46 -32 13 -40 30 -15 30 9 0 28 11 42 24 22 21 24 27 14 40 -10 12
-18 13 -32 5 -11 -5 -24 -7 -29 -4 -10 6 -14 -15 -11 -44 2 -7 -4 -11 -11 -9
-7 3 -12 12 -11 20 2 9 -15 20 -46 32 -62 22 -75 37 -76 87 0 33 -3 39 -22 39
l-21 0 18 -63 c11 -40 22 -61 31 -59 25 6 58 -8 64 -29 9 -26 -11 -40 -42 -32
-13 3 -23 4 -23 2 0 -2 7 -26 16 -54 9 -27 19 -75 23 -105 13 -92 54 -254 68
-271 14 -16 18 -79 6 -79 -5 0 -28 53 -53 117 -24 64 -55 132 -68 151 -16 24
-20 38 -12 47 7 8 1 40 -20 107 -26 83 -34 96 -55 100 -22 5 -28 -1 -27 -22 0
-3 -7 -11 -15 -19 -12 -11 -14 -11 -12 0 3 18 -9 46 -33 81 -25 36 -23 40 14
36 24 -2 34 -9 37 -23 3 -20 3 -20 -20 0 -21 17 -22 17 -7 0 9 -10 29 -19 43
-20 25 -1 26 1 20 33 -15 81 -32 97 -71 67 -25 -19 -44 -18 -73 4 -16 12 -20
21 -12 25 20 13 12 31 -14 31 -14 0 -25 -3 -25 -6 0 -4 -11 -6 -25 -6 -14 0
-25 3 -23 8 2 4 92 102 200 216 108 114 209 224 225 244 138 180 134 169 107
258 -18 63 -50 108 -164 231 -46 51 -78 91 -69 89 22 -6 409 -420 409 -438 0
-6 6 -11 13 -11 8 0 51 -42 98 -92 248 -275 355 -368 420 -368 14 0 81 -69
186 -192 l31 -36 27 28 28 29 -36 43 c-20 24 -58 67 -85 96 -46 49 -50 58 -55
117 -8 82 -45 156 -131 260 -133 161 -301 369 -309 383 -13 20 30 62 64 62 27
0 59 22 59 41 0 6 -57 65 -127 132 -206 196 -246 237 -229 237 24 0 48 44 40
74 -4 16 -1 32 6 41 20 24 30 17 23 -17 -4 -26 -3 -30 6 -22 7 6 14 30 16 53
2 27 10 47 21 56 18 13 18 14 0 34 -11 12 -27 21 -36 21 -25 0 -137 120 -121
130 7 4 12 16 11 26 -6 50 -2 55 34 49 22 -5 44 -1 62 9 16 8 138 122 270 254
182 180 243 247 249 270 7 33 23 40 42 21 8 -8 15 -3 27 19 17 33 43 46 70 36
12 -5 16 0 16 20 0 17 22 51 71 106 62 70 70 84 64 107 -12 50 -74 97 -168
126 -96 31 -109 45 -142 146 -20 63 -86 135 -149 165 -38 18 -41 18 -72 1 -18
-10 -76 -62 -130 -116 -94 -96 -96 -100 -91 -136 7 -42 12 -36 -248 -299 -201
-203 -235 -243 -260 -296 -14 -29 -25 -61 -25 -70 0 -24 -12 -23 -28 2 -11 18
-7 28 30 83 23 34 34 56 26 49 -14 -11 -18 -10 -27 7 -13 23 -14 51 -3 51 4 0
18 -8 32 -17 23 -16 24 -16 61 27 22 26 35 49 31 58 -3 9 -1 13 5 9 13 -8 28
29 39 97 9 47 11 49 54 62 52 15 58 12 41 -20 -9 -17 -19 -22 -33 -18 -14 3
-19 1 -16 -8 9 -28 26 -18 107 60 68 67 80 84 71 96 -24 28 -57 15 -51 -20 4
-18 -11 -46 -25 -46 -19 0 -54 36 -54 56 0 9 9 18 20 21 12 3 20 14 20 27 0
11 3 44 6 72 l6 51 -42 6 c-54 7 -60 14 -31 38 23 19 23 20 5 34 -10 8 -22 15
-26 15 -17 0 -6 18 18 29 22 10 30 9 44 -4 26 -24 38 -18 64 33 13 26 34 55
46 65 38 32 12 31 -41 -1 -63 -40 -91 -43 -54 -6 29 29 -23 78 -54 50 -9 -7
-26 -17 -38 -20 -14 -5 -23 -15 -23 -27 0 -11 -7 -27 -15 -35 -8 -9 -15 -19
-15 -24 0 -10 26 -37 41 -42 15 -5 0 -58 -18 -58 -7 0 -26 -11 -41 -25 -15
-14 -34 -25 -42 -24 -36 3 -42 -1 -36 -25 14 -58 -22 -76 -44 -22 -9 23 -19
34 -31 33 -12 -1 -15 -5 -9 -12 14 -17 -13 -50 -34 -42 -9 4 -16 13 -16 21 0
8 -13 17 -30 21 -16 4 -30 11 -30 16 0 6 4 8 9 5 5 -3 15 1 22 10 18 22 86 51
136 59 23 4 47 13 53 20 16 19 4 52 -21 60 -25 8 -20 29 8 33 11 2 26 15 32
29 14 30 3 48 -42 66 l-30 13 37 27 c41 32 45 47 16 65 -20 12 -28 52 -10 52
15 0 12 46 -4 59 -8 7 -27 11 -43 9 -28 -3 -33 -15 -18 -50 4 -11 3 -18 -3
-18 -20 0 -42 32 -42 60 0 25 -20 46 -33 34 -10 -10 14 -98 30 -110 10 -7 15
-15 12 -19 -4 -3 -30 21 -59 55 -28 33 -58 60 -64 60 -19 0 -76 -30 -76 -40 0
-5 -16 -26 -37 -46 -32 -32 -35 -39 -24 -57 18 -28 0 -37 -71 -37 -66 0 -88 7
-88 26 0 8 -7 26 -16 39 -8 13 -14 34 -12 47 3 17 -5 28 -30 45 -19 11 -39 31
-46 44 -14 29 -34 35 -43 13 -4 -10 0 -22 10 -29 16 -11 16 -14 -3 -38 -11
-14 -20 -32 -20 -41 0 -10 -8 -16 -21 -16 -12 0 -19 -5 -16 -12 2 -7 15 -12
28 -10 l23 3 -21 -21 c-29 -26 -46 -25 -103 7 -51 28 -68 27 -55 -4 10 -22 12
-29 14 -45 1 -9 4 -9 12 2 9 12 10 12 5 -4 -4 -10 -1 -25 5 -33 10 -11 15 -10
34 7 19 18 28 20 65 11 60 -13 67 -24 40 -61 -19 -26 -24 -29 -34 -16 -13 17
-46 24 -63 13 -7 -4 -34 3 -62 17 -35 18 -51 22 -54 13 -7 -19 -17 -3 -24 36
-5 33 -3 37 21 43 28 7 36 24 11 24 -8 0 -15 7 -15 16 0 10 6 13 19 9 12 -3
21 0 25 10 4 10 -1 15 -14 15 -21 0 -25 16 -11 39 7 11 12 10 27 -8 21 -24 37
-27 53 -7 20 24 2 49 -33 43 -17 -3 -26 -4 -20 -1 6 3 10 21 8 41 -1 20 4 53
12 73 l15 36 77 -14 c42 -7 118 -12 167 -10 75 3 97 8 123 27 43 30 63 72 69
142 l6 58 31 -20 31 -21 -33 29 c-18 16 -43 53 -56 83 -84 209 -269 353 -594
464 -143 49 -172 56 -169 41 1 -5 52 -25 112 -43 287 -87 485 -211 588 -371
39 -59 71 -121 64 -121 -2 0 -55 26 -118 58 -209 106 -501 187 -766 213 -178
18 -451 -6 -421 -37 4 -3 33 0 65 7 76 16 323 16 443 0 118 -16 378 -81 513
-127 125 -44 274 -119 288 -147 15 -27 5 -121 -15 -153 -9 -13 -28 -32 -43
-41 -38 -25 -162 -23 -293 4 l-105 22 -19 -20 c-11 -13 -27 -19 -41 -16 -16 3
-22 0 -18 -10 3 -8 -2 -13 -12 -13 -39 0 -70 -76 -35 -87 8 -2 23 -9 34 -14
11 -7 16 -7 12 -1 -3 6 2 8 14 5 11 -3 20 -12 20 -20 0 -8 -4 -11 -10 -8 -5 3
-10 -2 -10 -13 0 -23 -27 -49 -55 -53 -11 -2 -36 7 -55 19 -19 12 -43 19 -52
16 -12 -3 -18 0 -18 9 0 8 8 14 18 13 27 -2 22 38 -5 42 -17 3 -23 -2 -23 -17
0 -11 -13 -29 -29 -40 -31 -22 -46 -27 -37 -12 10 15 -22 20 -34 5 -10 -11 -9
-14 9 -14 14 0 25 -9 32 -27 6 -16 18 -40 25 -55 13 -24 13 -28 -3 -37 -15 -8
-26 -1 -60 37 -24 26 -43 41 -43 35 0 -7 -7 -13 -15 -13 -8 0 -15 6 -15 13 -1
7 -6 5 -14 -5 -7 -10 -18 -18 -25 -18 -6 0 -11 -4 -11 -10 0 -13 6 -13 32 1
16 9 23 8 29 -2 7 -12 11 -11 19 1 10 13 11 13 8 0 -3 -17 27 -63 78 -118 19
-21 32 -43 29 -49 -2 -7 3 -29 12 -50 l16 -38 10 25 c6 14 11 29 11 33 1 5 13
19 28 30 15 12 29 34 32 50 5 29 27 57 45 57 13 0 14 -17 2 -24 -5 -3 -7 -15
-4 -27 11 -39 -37 -109 -74 -109 -37 0 -28 -28 10 -32 28 -3 32 -6 32 -33 0
-38 -34 -42 -52 -5 -7 14 -20 25 -30 26 -42 2 -45 4 -40 24 4 17 2 18 -14 9
-23 -12 -25 -35 -4 -43 22 -8 18 -34 -7 -41 -22 -8 -37 6 -79 70 -33 52 -20
95 28 95 26 0 31 18 7 27 -10 4 -20 -1 -26 -11 -7 -13 -13 -14 -23 -6 -10 8
-19 8 -33 -1 -20 -13 -24 -11 -88 36 -39 29 -20 -36 28 -96 32 -39 33 -40 39
-17 5 20 7 18 18 -20 14 -50 5 -112 -16 -112 -9 0 -3 -9 14 -24 l28 -25 -20
-38 c-10 -21 -20 -39 -21 -41 -1 -2 -18 5 -38 14 -32 16 -41 31 -38 65 1 3
-12 3 -29 1 -28 -4 -32 -22 -4 -22 7 0 16 -8 20 -17 5 -15 4 -16 -6 -5 -7 6
-19 12 -26 12 -10 0 -10 -6 3 -25 15 -23 15 -25 0 -25 -19 0 -22 -46 -3 -53 7
-4 4 -8 -8 -12 -18 -5 -21 -14 -19 -54 0 -27 4 -53 8 -60 10 -16 46 -14 52 4
4 9 19 15 37 15 29 0 29 1 14 18 -24 26 -23 50 1 29 24 -22 39 -21 52 2 14 27
13 31 -5 25 -8 -4 -27 2 -42 11 -22 15 -25 15 -20 2 3 -9 -1 -18 -9 -21 -22
-8 -22 -8 -34 14 -9 17 -6 24 16 45 15 14 34 23 41 20 9 -3 11 0 7 7 -5 8 -2
9 10 5 10 -4 20 -7 22 -7 3 0 2 -5 -1 -11 -4 -6 2 -5 14 3 24 15 27 24 9 31
-8 4 -7 6 3 6 9 1 22 -5 29 -13 6 -8 18 -12 26 -9 8 3 14 -1 14 -11 0 -12 -6
-15 -25 -10 -15 4 -25 2 -25 -5 0 -6 7 -11 15 -11 23 0 27 -21 16 -73 -14 -58
-8 -71 34 -85 32 -9 36 -8 55 18 11 15 20 44 20 64 0 37 20 56 58 56 11 0 22
6 25 13 9 23 -5 68 -24 80 -27 17 -23 27 11 27 29 0 41 -9 73 -54 12 -16 17
-17 36 -7 20 11 22 18 16 52 -4 24 -3 39 3 39 6 0 12 10 14 23 2 15 9 21 21
19 9 -2 17 2 17 7 0 6 14 18 31 27 24 12 37 13 54 6 25 -12 42 -59 26 -75 -17
-17 -13 -35 11 -59 20 -20 20 -22 3 -35 -25 -17 -45 -17 -45 2 0 8 -4 15 -10
15 -5 0 -10 -6 -10 -14 0 -15 35 -32 58 -27 16 3 32 -39 22 -59 -4 -8 -13 -26
-19 -40 -19 -42 -97 -145 -108 -143 -7 2 -8 -10 -1 -35 13 -51 -4 -96 -32 -87
-16 5 -20 2 -20 -14 0 -40 -34 -45 -121 -16 -78 26 -97 46 -51 53 13 2 24 13
28 28 13 52 -21 77 -66 50 -16 -9 -35 -16 -42 -16 -21 0 -48 -33 -48 -58 0
-36 -50 -29 -77 10 -17 24 -19 34 -10 40 9 5 8 12 -5 25 -12 11 -18 13 -18 5
0 -7 -4 -10 -10 -7 -5 3 -10 1 -10 -6 0 -8 -7 -6 -19 5 -19 17 -21 17 -45 -1
-27 -19 -29 -37 -5 -39 8 0 22 -4 33 -9 11 -5 21 -4 26 4 5 9 13 5 29 -15 11
-14 21 -30 21 -35 0 -10 -66 -31 -96 -31 -13 0 -22 -5 -21 -11 1 -6 -15 -17
-37 -25 -35 -14 -39 -14 -48 1 -5 10 -13 15 -17 13 -13 -8 0 42 14 54 9 7 16
6 25 -5 17 -20 30 -19 30 4 0 12 -27 35 -85 70 -46 29 -100 70 -118 92 l-34
40 -16 -24 c-14 -22 -14 -25 4 -41 27 -23 19 -40 -18 -44 -39 -4 -55 29 -28
58 10 11 14 24 9 31 -4 7 -3 10 3 6 6 -4 13 -1 16 6 6 17 3 32 -6 29 -5 -1 -6
1 -3 6 3 4 -8 24 -24 42 -32 38 -32 47 -1 30 12 -6 21 -7 21 -1 0 5 -6 11 -12
14 -10 3 -8 9 5 24 9 11 17 25 17 31 0 7 9 12 19 12 21 0 37 17 27 27 -3 3
-18 7 -33 9 -39 3 -41 4 -16 14 15 6 21 15 18 30 -2 11 0 18 6 15 5 -4 9 -1 9
4 0 6 7 11 15 11 8 0 15 4 15 9 0 4 -11 6 -24 4 -24 -5 -25 -3 -24 46 1 49 3
51 29 51 16 0 32 -7 38 -17 5 -10 13 -14 17 -10 5 5 3 12 -4 16 -10 6 -10 11
3 21 8 7 15 11 16 9 0 -2 2 -13 4 -23 5 -28 45 -50 45 -25 0 5 -5 7 -11 3 -6
-3 -4 5 5 19 10 14 26 27 36 30 11 3 20 12 20 20 0 21 -41 18 -61 -5 -9 -10
-19 -15 -23 -11 -15 15 -3 33 34 49 22 10 40 24 40 32 0 13 -3 12 -18 -1 -17
-15 -19 -15 -35 0 -16 16 -18 16 -36 -4 -29 -31 -104 -89 -124 -96 -12 -5 -41
7 -83 32 l-65 39 32 25 c33 26 32 47 -1 47 -26 0 -64 73 -56 110 2 15 1 31 -4
36 -6 6 -4 26 5 51 8 23 12 49 9 58 -4 8 -3 31 1 51 6 36 7 36 21 15 17 -23
44 -28 44 -8 0 8 -11 24 -25 37 -19 17 -22 27 -15 41 6 10 10 38 10 63 0 34 4
46 15 46 22 0 39 38 25 55 -8 10 -1 32 30 95 49 98 64 133 51 125 -5 -3 -12
-2 -15 3 -2 4 3 13 12 18 14 8 24 -1 61 -55 24 -36 36 -60 27 -52 -16 13 -17
12 -10 -15 4 -16 15 -40 24 -54 9 -14 34 -51 55 -83 21 -32 49 -66 62 -76 25
-20 31 -51 10 -51 -9 0 -17 -28 -26 -91 -6 -51 -9 -94 -6 -97 15 -15 29 25 33
98 2 44 9 80 14 80 5 0 18 -21 28 -47 11 -27 24 -56 30 -65 13 -24 13 -28 -5
-28 -22 0 -18 -38 5 -52 11 -7 20 -18 20 -24 0 -15 34 -44 52 -44 8 0 21 11
28 25 11 20 11 30 1 51 -6 15 -9 29 -6 33 8 7 32 -24 51 -64 11 -25 13 -27 14
-8 0 12 6 24 13 26 8 4 7 6 -3 7 -8 0 -29 25 -47 55 -24 42 -27 52 -13 45 31
-17 58 -11 79 16 12 15 21 38 21 53 0 38 -33 86 -69 101 -29 12 -35 11 -59 -7
-18 -14 -29 -32 -32 -57 l-5 -38 -19 34 c-11 18 -30 46 -43 61 -25 31 -31 75
-10 83 16 6 78 -10 244 -61 118 -37 121 -39 127 -70 7 -33 24 -54 65 -75 15
-8 21 -8 17 -1 -4 6 -3 11 3 11 25 0 51 45 51 86 0 67 -47 92 -107 58 -28 -16
-35 -15 -218 36 -265 73 -248 65 -321 157 -84 106 -142 163 -159 157 -13 -5
-15 -2 -10 18 4 16 -2 35 -19 60 -13 20 -22 38 -20 41 8 7 -215 431 -247 470
-33 40 -36 41 -60 27z m-241 -87 c5 -17 -26 -29 -40 -15 -6 6 -7 15 -3 22 9
14 37 9 43 -7z m192 -263 c0 -11 -4 -20 -9 -20 -5 0 -11 9 -14 20 -3 13 0 20
9 20 8 0 14 -9 14 -20z m170 -84 c0 -3 -4 -8 -10 -11 -5 -3 -10 -1 -10 4 0 6
5 11 10 11 6 0 10 -2 10 -4z m150 -61 c-7 -9 -15 -13 -18 -10 -3 2 1 11 8 20
7 9 15 13 18 10 3 -2 -1 -11 -8 -20z m-170 -95 c0 -5 -4 -10 -10 -10 -5 0 -10
5 -10 10 0 6 5 10 10 10 6 0 10 -4 10 -10z m-306 -21 c-3 -5 -10 -7 -15 -3 -5
3 -7 10 -3 15 3 5 10 7 15 3 5 -3 7 -10 3 -15z m553 -44 c-1 -5 5 -9 13 -7 12
3 13 1 3 -9 -7 -7 -13 -27 -14 -43 0 -17 -22 -71 -48 -121 -44 -81 -51 -90
-80 -93 -21 -2 -33 2 -37 12 -3 9 -12 16 -19 16 -21 0 -26 16 -15 46 9 23 7
31 -11 51 l-22 23 21 0 c12 0 22 5 22 10 0 6 -6 9 -12 8 -25 -5 -6 47 29 81
28 27 37 31 44 20 8 -13 13 -5 10 14 -1 4 25 6 58 5 33 -2 58 -7 58 -13z
m-233 -70 c-16 -24 -34 -33 -34 -17 1 17 19 33 48 41 1 1 -5 -10 -14 -24z
m-374 -68 c0 -5 -4 -5 -10 -2 -5 3 -10 14 -10 23 0 15 2 15 10 2 5 -8 10 -19
10 -23z m190 3 c8 -15 8 -20 -3 -20 -14 0 -37 19 -37 32 0 16 30 7 40 -12z
m646 -84 c33 -33 53 -76 35 -76 -6 0 -11 4 -11 9 0 5 -25 33 -55 62 -30 30
-55 58 -55 63 0 12 50 -21 86 -58z m-622 -128 c29 -36 36 -39 36 -22 0 12 9
31 19 43 18 21 21 21 49 7 16 -8 39 -12 52 -9 20 5 21 4 11 -16 -10 -18 -9
-28 6 -54 10 -17 29 -34 42 -37 24 -5 24 -6 25 -163 1 -113 -2 -158 -11 -161
-7 -3 -15 4 -18 15 -8 24 -44 40 -65 29 -8 -4 -36 -11 -62 -14 -46 -7 -65 -28
-35 -39 9 -4 8 -8 -3 -16 -11 -8 -16 -7 -18 4 -2 8 -12 17 -23 20 -19 6 -27
25 -10 25 5 0 7 9 4 21 -4 14 0 22 14 25 31 8 44 45 31 90 -7 27 -7 55 2 96
11 58 11 59 -20 98 -17 22 -45 48 -61 57 -16 10 -29 23 -29 30 0 26 29 12 64
-29z m-76 -22 c18 -11 73 -120 70 -138 -3 -20 -28 -10 -32 13 -9 54 -63 129
-92 129 -7 0 -15 4 -18 9 -6 9 53 -1 72 -13z m102 -77 c0 -6 -7 -6 -20 1 -11
6 -20 15 -20 21 0 6 7 6 20 -1 11 -6 20 -15 20 -21z m-200 -49 c0 -5 -4 -10
-10 -10 -5 0 -10 5 -10 10 0 6 5 10 10 10 6 0 10 -4 10 -10z m84 -95 c36 -49
41 -62 12 -31 -20 20 -30 26 -38 18 -8 -8 -7 -16 3 -28 13 -15 11 -16 -11 -9
-26 8 -70 43 -70 56 0 5 16 16 35 25 19 9 36 21 36 28 1 6 4 2 6 -9 3 -11 15
-33 27 -50z m856 -5 c0 -5 -4 -10 -10 -10 -5 0 -10 5 -10 10 0 6 5 10 10 10 6
0 10 -4 10 -10z m454 -102 c-8 -28 -12 -33 -20 -25 -9 8 6 47 17 47 6 0 7 -10
3 -22z m-1274 -41 c0 -5 -7 -6 -16 -3 -9 4 -23 1 -30 -5 -10 -8 -14 -8 -14 0
0 6 5 11 10 11 6 0 8 11 4 28 l-7 27 27 -24 c14 -14 26 -29 26 -34z m-282 4
c37 -46 38 -51 13 -51 -23 0 -61 45 -61 71 0 29 13 23 48 -20z m1408 6 c16 6
19 -13 3 -23 -11 -7 -29 13 -28 31 0 6 3 5 5 -2 3 -7 12 -9 20 -6z m74 -26 c0
-11 -4 -23 -10 -26 -5 -3 -10 -1 -10 4 0 6 -7 11 -15 11 -16 0 -20 12 -8 23
14 15 43 7 43 -12z m-1262 -23 c16 -16 15 -48 -2 -48 -20 0 -39 27 -32 45 7
18 18 19 34 3z m1129 -20 c-3 -8 -6 -5 -6 6 -1 11 2 17 5 13 3 -3 4 -12 1 -19z
m733 4 c0 -5 -8 -16 -19 -26 -10 -9 -26 -35 -36 -57 l-18 -40 -23 53 c-16 38
-19 57 -12 66 12 13 108 17 108 4z m286 -6 c9 -10 11 -17 4 -21 -13 -8 -42 14
-34 26 7 12 13 11 30 -5z m-2226 0 c0 -2 3 -11 6 -20 3 -9 1 -16 -5 -16 -6 0
-11 6 -11 14 0 8 -6 17 -12 19 -8 3 -6 6 5 6 9 1 17 -1 17 -3z m1320 -27 c0
-18 -33 -5 -36 13 -2 15 1 16 17 8 10 -6 19 -15 19 -21z m-1516 -3 c15 -13 26
-26 26 -29 0 -4 -14 -14 -31 -23 -40 -20 -79 -6 -79 29 0 49 43 62 84 23z
m436 20 c0 -3 -4 -8 -10 -11 -5 -3 -10 -1 -10 4 0 6 5 11 10 11 6 0 10 -2 10
-4z m145 -22 c0 -11 6 -28 14 -38 8 -9 11 -19 8 -22 -7 -7 -57 59 -57 75 0 7
8 11 18 9 9 -2 17 -12 17 -24z m1035 11 c0 -8 -7 -15 -15 -15 -8 0 -15 7 -15
15 0 8 7 15 15 15 8 0 15 -7 15 -15z m658 -18 c2 -10 -3 -17 -12 -17 -18 0
-29 16 -21 31 9 14 29 6 33 -14z m-2011 -24 c5 -15 -36 -28 -49 -15 -6 6 -7
15 -3 22 9 14 47 9 52 -7z m2150 1 c3 -8 -1 -23 -10 -32 -15 -14 -17 -14 -23
1 -8 21 1 47 16 47 6 0 13 -7 17 -16z m-1167 -23 c0 -5 -9 -7 -20 -4 -11 3
-20 12 -20 20 0 11 4 11 20 3 11 -6 20 -15 20 -19z m476 12 c4 -10 6 -24 5
-31 -1 -7 2 -12 6 -11 22 4 33 -3 33 -21 0 -11 -5 -20 -11 -20 -6 0 -8 7 -5
16 4 12 2 15 -9 10 -8 -3 -15 -1 -15 4 0 6 -8 10 -19 10 -10 0 -25 7 -32 16
-11 14 -10 18 6 30 25 18 31 18 41 -3z m755 -2 c-6 -10 -23 -30 -38 -43 -16
-14 -50 -48 -78 -77 -45 -47 -48 -53 -37 -72 10 -15 10 -19 1 -14 -9 6 -10 1
-7 -18 6 -29 -4 -41 -39 -50 -28 -6 -30 9 -3 23 24 13 26 38 5 46 -9 4 -31 -8
-55 -30 -73 -66 -63 -40 18 43 23 25 42 51 42 58 0 8 11 18 25 23 18 7 23 14
18 27 -6 15 -4 16 8 6 13 -10 24 -3 69 42 55 55 91 74 71 36z m-671 -1 c0 -5
-2 -10 -4 -10 -3 0 -8 5 -11 10 -3 6 -1 10 4 10 6 0 11 -4 11 -10z m60 -15 c0
-8 -4 -15 -10 -15 -5 0 -7 7 -4 15 4 8 8 15 10 15 2 0 4 -7 4 -15z m-270 -10
c0 -8 -7 -15 -15 -15 -8 0 -15 7 -15 15 0 8 7 15 15 15 8 0 15 -7 15 -15z
m-1222 -29 c-2 -10 -7 -13 -17 -7 -8 6 -11 16 -7 27 8 21 30 4 24 -20z m-468
3 c46 -24 47 -40 4 -50 -16 -4 -36 -10 -45 -13 -20 -9 -49 18 -49 45 0 16 17
30 47 38 1 1 21 -9 43 -20z m165 11 c4 -6 4 -18 1 -27 -5 -12 -9 -13 -21 -3
-8 7 -15 19 -15 26 0 16 26 19 35 4z m1585 -25 c20 -21 21 -25 7 -31 -12 -4
-15 -13 -11 -30 5 -21 3 -24 -23 -24 -22 0 -33 -7 -41 -25 -11 -24 -42 -35
-42 -15 0 6 5 9 12 8 10 -3 13 47 5 97 -1 6 9 9 21 7 17 -1 25 4 29 18 7 26
15 25 43 -5z m-1125 -6 c10 -15 -1 -23 -20 -15 -9 3 -13 10 -10 16 8 13 22 13
30 -1z m1509 -7 c8 -13 -11 -35 -23 -28 -16 10 -14 36 3 36 8 0 17 -4 20 -8z
m-2041 -38 c-3 -8 -13 -14 -22 -13 -10 0 -11 2 -3 6 6 2 12 9 12 14 0 6 -4 7
-10 4 -11 -7 -14 8 -3 18 10 11 32 -13 26 -29z m1841 15 c-3 -5 -10 -7 -15 -3
-5 3 -7 10 -3 15 3 5 10 7 15 3 5 -3 7 -10 3 -15z m-1684 -14 c16 -19 4 -35
-26 -35 -17 0 -24 6 -24 18 0 34 28 43 50 17z m2008 -14 c3 -8 -1 -12 -9 -9
-7 2 -15 10 -17 17 -3 8 1 12 9 9 7 -2 15 -10 17 -17z m-2351 -7 c7 -19 -13
-34 -44 -34 -28 0 -32 36 -5 43 33 9 43 7 49 -9z m589 -20 c30 -31 30 -37 2
-29 l-23 6 23 -17 c25 -19 30 -64 7 -64 -19 0 -49 46 -42 65 4 8 2 17 -3 20
-14 9 -12 45 1 45 7 0 22 -11 35 -26z m934 -4 c6 -11 7 -20 2 -20 -6 0 -12 9
-15 20 -3 11 -3 20 -1 20 2 0 8 -9 14 -20z m-1126 -6 c30 -29 14 -61 -24 -49
-20 6 -35 38 -25 55 9 15 31 12 49 -6z m-316 -17 c2 -10 -3 -17 -12 -17 -18 0
-29 16 -21 31 9 14 29 6 33 -14z m1555 -17 c12 -11 -11 -52 -25 -44 -5 4 -13
2 -17 -4 -9 -15 -61 -27 -61 -14 0 6 5 14 12 18 7 4 8 3 4 -4 -4 -7 -2 -12 3
-12 6 0 11 9 11 20 0 14 5 18 16 13 12 -4 15 -2 12 8 -3 8 -15 13 -26 13 -26
-2 -29 13 -4 19 21 6 64 -1 75 -13z m417 16 c0 -3 -4 -8 -10 -11 -5 -3 -10 -1
-10 4 0 6 5 11 10 11 6 0 10 -2 10 -4z m320 -6 c0 -5 -4 -10 -10 -10 -5 0 -10
5 -10 10 0 6 5 10 10 10 6 0 10 -4 10 -10z m-2046 -26 c9 -24 2 -26 -12 -4 -7
11 -8 20 -3 20 5 0 12 -7 15 -16z m1929 -4 c6 -23 -10 -37 -24 -23 -10 10 -2
43 11 43 4 0 10 -9 13 -20z m-2063 -11 c0 -25 -33 -22 -38 4 -2 12 3 17 17 17
15 0 21 -6 21 -21z m3255 1 c3 -5 -1 -10 -9 -10 -9 0 -16 5 -16 10 0 6 4 10 9
10 6 0 13 -4 16 -10z m-2430 -10 c3 -5 1 -10 -4 -10 -6 0 -11 5 -11 10 0 6 2
10 4 10 3 0 8 -4 11 -10z m760 0 c3 -5 -3 -10 -15 -10 -12 0 -18 5 -15 10 3 6
10 10 15 10 5 0 12 -4 15 -10z m1005 0 c0 -5 -4 -10 -10 -10 -5 0 -10 5 -10
10 0 6 5 10 10 10 6 0 10 -4 10 -10z m-2324 -8 c-2 -4 17 -20 44 -35 43 -24
50 -33 64 -81 30 -104 16 -170 -50 -224 -47 -39 -129 -60 -176 -45 l-33 11 40
1 c70 2 118 21 162 65 67 67 71 156 10 223 -79 85 -261 70 -309 -27 -31 -62
-17 -173 26 -210 21 -16 20 -32 0 -28 -21 4 -53 102 -53 163 0 57 9 77 61 134
39 41 57 48 148 54 25 2 51 4 58 5 7 1 11 -2 8 -6z m1982 -55 c-1 -2 3 -11 11
-20 17 -22 8 -22 -13 -1 -9 8 -13 20 -10 25 3 6 8 8 11 5 2 -2 3 -6 1 -9z
m-2520 -9 c16 -16 15 -35 -3 -42 -22 -8 -45 4 -45 23 0 32 26 41 48 19z m825
-29 c5 -20 0 -29 -18 -29 -13 0 -47 55 -39 63 10 10 52 -15 57 -34z m1327 16
c0 -14 -8 -29 -21 -35 -29 -16 -35 -6 -10 19 12 12 21 26 21 31 0 6 2 10 5 10
3 0 5 -11 5 -25z m588 -13 c2 -7 -7 -12 -23 -12 -22 0 -24 2 -13 15 15 16 30
15 36 -3z m-263 -2 c3 -5 -1 -10 -10 -10 -9 0 -13 5 -10 10 3 6 8 10 10 10 2
0 7 -4 10 -10z m491 -60 c1 -17 -2 -30 -7 -30 -5 0 -9 9 -9 19 0 11 -5 23 -12
27 -7 5 -9 2 -5 -8 5 -13 1 -14 -24 -4 -17 6 -25 12 -20 14 5 2 7 10 4 19 -5
13 -2 15 15 11 13 -4 22 -1 22 5 0 25 35 -26 36 -53z m-2875 34 c9 -11 10 -20
2 -32 -13 -22 -43 -22 -56 -1 -24 38 25 68 54 33z m399 -34 c0 -5 -4 -10 -10
-10 -5 0 -10 5 -10 10 0 6 5 10 10 10 6 0 10 -4 10 -10z m1656 -17 c-10 -10
-19 5 -10 18 6 11 8 11 12 0 2 -7 1 -15 -2 -18z m-1971 -3 c0 -22 -29 -18 -33
3 -3 14 1 18 15 15 10 -2 18 -10 18 -18z m2740 10 c3 -5 1 -10 -4 -10 -6 0
-11 5 -11 10 0 6 2 10 4 10 3 0 8 -4 11 -10z m910 -8 c-3 -3 -11 0 -18 7 -9
10 -8 11 6 5 10 -3 15 -9 12 -12z m-435 -2 c0 -5 -4 -10 -10 -10 -5 0 -10 5
-10 10 0 6 5 10 10 10 6 0 10 -4 10 -10z m-1723 -16 c9 -23 -13 -40 -32 -24
-12 10 -13 16 -4 26 15 18 28 18 36 -2z m-1797 -4 c8 -5 11 -12 8 -16 -10 -9
-38 3 -38 16 0 12 10 13 30 0z m977 -34 c-9 -24 -25 -19 -22 7 3 32 4 32 16
20 7 -7 9 -19 6 -27z m2843 26 c0 -13 -12 -22 -22 -16 -10 6 -1 24 13 24 5 0
9 -4 9 -8z m-3681 -11 c17 -11 7 -41 -12 -41 -8 0 -20 7 -28 16 -10 13 -10 17
2 25 17 11 21 11 38 0z m2754 -11 c31 -25 42 -65 27 -101 -15 -36 -41 -44 -80
-24 -52 27 -71 117 -27 135 34 14 52 12 80 -10z m1057 -5 c0 -16 -27 -32 -37
-22 -3 4 -3 13 0 22 8 20 37 20 37 0z m-3727 -9 c21 -16 22 -32 1 -40 -21 -8
-20 -8 -39 10 -12 12 -13 19 -4 30 14 17 19 17 42 0z m2182 -26 c0 -18 -6 -26
-23 -28 -13 -2 -25 3 -28 12 -10 26 4 48 28 44 17 -2 23 -10 23 -28z m315 10
c26 -26 25 -68 -2 -97 -27 -29 -65 -29 -95 -1 -46 43 -16 118 47 118 17 0 39
-9 50 -20z m-1835 -20 c-3 -5 -13 -10 -21 -10 -8 0 -12 5 -9 10 3 6 13 10 21
10 8 0 12 -4 9 -10z m3081 -17 c22 -29 17 -79 -8 -97 -27 -19 -83 -22 -72 -4
5 7 3 8 -5 4 -19 -12 -51 24 -51 57 0 48 24 67 77 62 28 -2 50 -11 59 -22z
m-3818 -16 c3 -23 0 -27 -21 -27 -27 0 -42 31 -24 49 19 19 42 8 45 -22z
m2432 7 c0 -16 -16 -19 -25 -4 -8 13 4 32 16 25 5 -4 9 -13 9 -21z m848 14
c16 -16 15 -30 -2 -53 -13 -18 -14 -17 -30 13 -9 18 -14 37 -11 42 8 14 29 12
43 -2z m-3185 -30 c6 -19 -3 -38 -18 -38 -17 0 -38 27 -30 40 9 14 42 13 48
-2z m3407 -9 c0 -5 -7 -9 -15 -9 -15 0 -20 12 -9 23 8 8 24 -1 24 -14z m-2497
-17 c19 -12 40 -22 48 -22 10 0 10 -3 1 -12 -7 -7 -12 -18 -12 -26 0 -12 3
-12 15 -2 12 10 15 10 15 0 0 -7 7 -10 15 -7 8 4 17 1 21 -5 5 -7 -2 -9 -19
-6 -15 3 -24 2 -22 -3 3 -4 2 -9 -2 -12 -5 -2 -3 -3 2 -1 6 1 19 -4 30 -12 15
-12 17 -18 7 -39 -6 -14 -17 -25 -24 -25 -22 1 -49 27 -43 42 3 7 -1 22 -9 33
-12 16 -18 18 -33 9 -11 -7 -37 -9 -64 -6 -86 11 -164 7 -212 -12 l-48 -18 6
-42 c5 -38 1 -49 -59 -144 -69 -111 -77 -136 -95 -301 -13 -117 -8 -127 99
-218 44 -37 80 -72 80 -77 0 -5 -8 -15 -17 -22 -16 -12 -14 -13 19 -14 21 0
56 7 79 17 33 13 48 14 73 5 17 -6 54 -13 82 -17 44 -6 52 -11 68 -40 21 -38
91 -69 118 -51 12 7 22 3 41 -20 l25 -29 -26 -7 c-15 -4 -35 -18 -44 -30 l-18
-23 -25 28 c-13 15 -32 26 -42 26 -17 -1 -17 -2 0 -6 14 -4 12 -8 -15 -27 -18
-12 -39 -34 -46 -49 -10 -20 -20 -27 -42 -27 -16 0 -32 -5 -36 -11 -3 -6 -16
-8 -28 -5 l-21 5 21 -17 c12 -9 30 -22 40 -28 18 -11 17 -13 -9 -23 -16 -6
-42 -11 -59 -11 -24 0 -28 -3 -19 -13 8 -11 6 -18 -9 -32 -11 -10 -20 -26 -20
-37 0 -10 -3 -17 -7 -17 -27 4 -41 -3 -37 -18 5 -21 -11 -43 -48 -67 -16 -10
-28 -24 -28 -31 0 -14 -22 -25 -51 -25 -10 0 -19 -7 -19 -15 0 -8 7 -15 15
-15 8 0 15 -6 16 -12 0 -10 2 -10 6 0 6 16 23 15 23 -1 0 -13 -28 -77 -34 -77
-2 0 -17 5 -34 11 -36 12 -71 -2 -139 -57 -23 -19 -48 -33 -54 -32 -8 2 -13
-7 -14 -22 0 -19 -5 -24 -20 -22 -31 6 -30 8 11 44 21 18 45 40 54 48 8 8 28
23 43 33 15 9 27 25 27 33 0 14 -3 14 -15 4 -9 -7 -18 -10 -22 -6 -3 3 -1 6 6
6 8 0 11 7 7 15 -3 8 1 18 10 23 18 10 36 70 24 77 -5 3 -31 3 -58 -1 -73 -9
-153 17 -202 66 -66 66 -56 108 69 312 39 64 71 121 71 125 0 5 -13 19 -30 31
-39 29 -41 69 -5 78 27 7 55 -10 55 -32 0 -23 17 -16 41 17 16 23 19 33 10 42
-17 17 -13 25 14 25 31 0 31 -7 -1 -135 -28 -112 -28 -170 -2 -187 25 -15 99
7 183 55 60 35 71 38 80 25 9 -12 14 -13 23 -4 7 7 12 9 12 4 0 -4 7 -1 15 8
19 18 19 26 1 26 -8 0 -16 4 -18 8 -1 4 -43 34 -92 66 -49 31 -113 81 -142
111 -30 29 -64 55 -76 57 -16 2 -26 14 -34 38 -10 29 -19 37 -59 50 -59 18
-76 46 -24 37 19 -3 45 -9 58 -13 22 -7 23 -5 15 27 -7 31 -8 187 -2 249 3 21
-2 26 -32 31 l-35 6 36 2 c34 1 38 4 72 75 22 44 63 101 103 144 81 89 158
129 274 146 45 6 79 14 76 16 -15 15 68 -1 97 -18z m2322 -32 c-10 -11 -24
-19 -31 -16 -8 3 -11 0 -8 -9 3 -7 -4 -30 -15 -52 -26 -48 -26 -35 -2 49 26
90 29 94 54 69 20 -20 20 -21 2 -41z m-119 35 c-3 -8 -1 -15 5 -15 6 0 8 -4 4
-9 -3 -6 4 -8 15 -6 11 2 20 -1 20 -8 0 -25 -21 -87 -30 -87 -10 0 -70 80 -70
93 0 10 41 46 54 47 4 0 6 -7 2 -15z m174 -50 c23 -25 24 -27 7 -53 -9 -15
-21 -26 -27 -24 -7 1 -8 -2 -5 -9 9 -14 -44 -69 -67 -69 -23 0 -24 36 -3 87
15 36 15 36 37 17 l22 -19 -17 24 c-14 21 -14 26 0 47 19 30 24 30 53 -1z
m-204 -50 c26 -50 27 -56 13 -70 -14 -15 -20 -12 -65 28 l-49 45 24 26 c14 14
30 26 37 26 6 0 24 -25 40 -55z m-406 31 c9 -12 4 -19 -29 -40 -22 -14 -52
-46 -66 -71 -31 -52 -45 -55 -74 -19 -26 33 -26 40 -2 65 15 16 26 19 48 15
32 -7 83 23 83 50 0 18 24 18 40 0z m-2640 0 c0 -3 -4 -8 -10 -11 -5 -3 -10
-1 -10 4 0 6 5 11 10 11 6 0 10 -2 10 -4z m2158 -43 c2 -8 -5 -13 -17 -13 -12
0 -21 6 -21 16 0 18 31 15 38 -3z m1161 -7 l23 -25 -38 -16 c-32 -13 -40 -13
-51 -2 -12 11 -10 18 7 40 26 33 31 33 59 3z m-331 -30 c43 -41 46 -46 31 -61
-15 -15 -20 -12 -62 35 -26 29 -47 49 -47 45 0 -4 18 -28 41 -52 22 -24 39
-51 37 -61 -1 -9 1 -23 5 -29 11 -18 -1 -16 -31 5 -45 31 -58 35 -29 8 15 -14
24 -26 20 -26 -4 0 -2 -4 5 -9 9 -5 2 -16 -28 -36 -55 -38 -50 -41 13 -6 49
27 77 31 77 10 0 -5 -4 -9 -10 -9 -15 0 -122 -42 -117 -46 2 -2 25 2 50 10 43
13 46 13 38 -3 -5 -9 -25 -31 -43 -49 l-34 -32 -28 29 c-16 16 -25 34 -22 40
4 6 -1 11 -11 11 -11 0 -34 15 -52 34 l-34 35 23 38 c25 41 139 163 153 163 4
0 29 -20 55 -44z m-1110 1 c2 -10 -3 -17 -12 -17 -10 0 -16 9 -16 21 0 24 23
21 28 -4z m560 -9 c0 -13 1 -28 3 -34 2 -7 0 -13 -6 -14 -14 -2 -24 43 -12 58
13 17 14 15 15 -10z m345 -14 c-4 -10 -9 -12 -15 -6 -12 12 -1 35 12 27 5 -3
6 -13 3 -21z m536 -32 c-19 -20 -34 -38 -34 -39 -1 -1 -11 0 -23 4 l-22 5 23
24 c27 26 79 56 86 48 2 -2 -11 -21 -30 -42z m144 2 c-3 -8 -13 -14 -23 -14
-23 0 -37 39 -19 51 17 10 50 -18 42 -37z m-2613 16 c11 -6 24 -20 30 -31 11
-20 10 -20 -18 -5 -34 18 -61 46 -43 46 7 0 21 -5 31 -10z m2549 -21 l18 -30
-29 -29 c-32 -32 -44 -31 -72 7 l-19 26 32 29 c40 35 47 35 70 -3z m-1149 -39
c0 -5 -7 -10 -16 -10 -8 0 -12 5 -9 10 3 6 10 10 16 10 5 0 9 -4 9 -10z m1015
-11 c4 -6 -3 -21 -15 -34 -21 -23 -24 -23 -51 -9 -35 18 -36 27 -6 42 29 14
64 15 72 1z m58 -45 c-3 -8 0 -14 7 -14 6 0 8 -4 5 -10 -3 -5 -25 -7 -48 -4
-31 4 -38 2 -27 -5 8 -6 27 -11 43 -11 22 0 27 -4 27 -25 0 -15 -6 -25 -14
-25 -16 0 -39 24 -30 32 3 3 -7 8 -21 12 -33 8 -32 33 2 68 25 26 28 27 44 12
10 -9 15 -22 12 -30z m-134 -14 c10 0 20 -3 24 -6 6 -6 -31 -74 -41 -74 -4 0
-20 11 -37 25 l-30 24 30 25 c17 13 32 20 33 15 2 -5 12 -9 21 -9z m-822 -147
c41 -46 53 -67 45 -75 -8 -8 -18 -2 -39 23 -15 19 -61 71 -100 116 -45 50 -68
83 -60 86 12 5 50 -32 154 -150z m-2194 119 c34 -5 44 -20 26 -37 -12 -12 -21
-10 -59 7 -25 11 -47 22 -50 25 -9 8 25 23 40 16 8 -3 27 -8 43 -11z m1763 -3
c10 -17 -13 -36 -27 -22 -12 12 -4 33 11 33 5 0 12 -5 16 -11z m1131 -20 c4
-16 8 -17 14 -7 7 10 16 9 46 -9 21 -12 37 -25 36 -30 -1 -4 -16 -39 -33 -76
-28 -62 -33 -67 -48 -55 -15 12 -16 11 -3 -4 17 -22 8 -48 -16 -48 -10 0 -47
29 -83 65 l-64 64 19 23 c81 97 121 121 132 77z m187 2 c14 -15 15 -24 6 -40
-13 -25 -42 -27 -60 -6 -10 12 -9 20 4 40 20 30 28 31 50 6z m-558 -68 c11
-12 13 -18 5 -21 -13 -4 -41 16 -41 29 0 14 17 10 36 -8z m524 -14 c0 -3 -11
-16 -25 -29 -22 -21 -25 -21 -31 -6 -4 10 -2 28 5 42 9 21 13 23 31 12 11 -7
20 -15 20 -19z m-2976 -198 c3 -4 3 -11 0 -14 -8 -7 -44 4 -44 14 0 12 37 12
44 0z m309 -46 c1 -5 -6 -11 -15 -13 -11 -2 -18 3 -18 13 0 17 30 18 33 0z
m2365 -25 c-7 -10 -14 -17 -17 -15 -4 4 18 35 25 35 2 0 -1 -9 -8 -20z m-408
-9 c0 -6 -4 -13 -10 -16 -5 -3 -10 1 -10 9 0 9 5 16 10 16 6 0 10 -4 10 -9z
m-1614 -26 c32 -49 -15 -97 -68 -71 -29 14 -35 52 -12 77 24 27 60 24 80 -6z
m-622 -18 c8 -12 7 -20 -1 -28 -16 -16 -33 -2 -33 27 0 28 17 28 34 1z m2519
-79 c53 -57 109 -120 123 -140 l27 -38 -27 -40 c-14 -22 -29 -40 -32 -40 -3 0
4 13 15 29 28 39 26 59 -9 101 l-29 35 -103 -100 c-57 -55 -145 -140 -196
-188 l-93 -88 28 -34 c52 -61 54 -60 263 139 53 50 35 30 -40 -45 -75 -75
-146 -141 -158 -148 -19 -10 -27 -7 -63 26 -85 77 -219 232 -219 255 0 15 34
55 103 123 216 212 264 255 288 255 17 0 51 -29 122 -102z m-2607 21 c3 -6 1
-16 -5 -22 -9 -9 -14 -8 -21 3 -9 15 -4 30 10 30 5 0 12 -5 16 -11z m1544 -2
c0 -7 -40 -52 -89 -101 -84 -84 -90 -87 -100 -67 -7 11 -8 21 -4 21 4 0 46 36
93 80 86 81 100 90 100 67z m-729 -20 c-10 -9 -11 -8 -5 6 3 10 9 15 12 12 3
-3 0 -11 -7 -18z m1129 -7 c0 -5 -4 -10 -10 -10 -5 0 -10 5 -10 10 0 6 5 10
10 10 6 0 10 -4 10 -10z m-360 -90 c7 -16 17 -30 23 -30 6 0 -1 -13 -16 -28
l-27 -29 23 -34 c38 -57 39 -58 17 -52 -10 3 -26 -2 -35 -11 -9 -9 -12 -16 -6
-16 6 0 -4 -22 -21 -50 -53 -86 -51 -183 6 -268 29 -43 31 -50 17 -59 -14 -9
-12 -14 12 -33 49 -39 24 -120 -37 -120 -13 0 -29 -7 -36 -15 -10 -12 -10 -15
0 -15 7 0 10 -7 7 -15 -8 -20 11 -29 30 -14 13 11 18 10 34 -10 20 -25 25 -66
10 -76 -5 -3 -16 4 -25 16 -14 21 -16 21 -39 6 -24 -16 -25 -15 -36 11 -19 43
-49 75 -66 68 -8 -3 -15 0 -15 6 0 9 43 73 59 88 12 10 44 85 43 97 -2 6 2 14
8 18 6 3 7 0 4 -9 -4 -10 -1 -16 8 -16 25 0 16 31 -26 94 -45 67 -76 84 -76
42 0 -18 -6 -25 -22 -28 -25 -3 -27 -1 40 -54 55 -44 39 -94 -30 -94 -28 0
-40 5 -45 18 -3 9 -13 25 -21 35 -10 11 -11 17 -4 17 7 0 12 5 12 11 0 5 -5 7
-12 3 -7 -4 -8 -3 -4 5 4 6 11 9 16 6 4 -3 13 1 19 9 9 10 8 15 -4 20 -8 3
-15 1 -15 -4 0 -14 -41 -12 -70 5 l-25 13 28 11 c16 6 30 11 33 11 10 0 44 41
44 53 0 7 4 17 9 23 5 5 12 20 16 33 7 23 6 23 -29 17 -33 -6 -39 -3 -81 38
-25 25 -45 48 -45 51 0 13 29 3 34 -12 6 -14 11 -12 37 13 17 16 37 42 46 57
10 21 20 28 34 24 24 -6 35 9 13 17 -9 4 -15 9 -12 11 7 7 63 -22 78 -40 7 -8
17 -15 23 -15 6 0 1 10 -11 23 -24 25 -30 52 -9 43 6 -3 20 -9 30 -12 9 -4 16
-12 15 -20 -2 -7 2 -13 7 -13 6 0 9 7 7 16 -2 9 1 12 9 8 7 -5 10 -3 7 6 -5
16 -79 60 -89 53 -17 -10 -17 15 0 30 18 17 20 17 30 -3 15 -28 43 -42 62 -30
11 8 10 12 -11 28 -23 18 -23 21 -10 48 31 62 42 66 60 23z m-570 -65 c0 -20
-5 -25 -25 -25 -18 0 -25 5 -25 18 0 24 8 32 32 32 13 0 18 -7 18 -25z m224
-4 c10 -16 -5 -41 -24 -41 -20 0 -30 17 -22 38 5 14 38 16 46 3z m1426 -21 c0
-5 -98 -102 -187 -184 -24 -22 -46 -37 -49 -33 -4 3 9 18 27 34 19 15 67 59
107 99 60 59 73 76 67 94 -6 19 -5 20 14 8 12 -7 21 -15 21 -18z m-2676 -11
c-8 -14 -34 -11 -34 4 0 8 3 17 7 20 9 9 34 -13 27 -24z m1443 -15 c-3 -3 -12
-4 -19 -1 -8 3 -5 6 6 6 11 1 17 -2 13 -5z m-247 -23 c0 -14 -18 -23 -30 -16
-6 4 -8 11 -5 16 8 12 35 12 35 0z m-220 -96 c11 -13 10 -14 -4 -9 -9 3 -16
10 -16 15 0 13 6 11 20 -6z m1795 -15 c23 -24 26 -32 15 -45 -18 -22 -33 -19
-65 15 -23 24 -26 32 -15 45 18 22 33 19 65 -15z m-2045 -15 c0 -8 -4 -15 -10
-15 -5 0 -7 7 -4 15 4 8 8 15 10 15 2 0 4 -7 4 -15z m1033 -34 c36 -39 91
-111 84 -111 -2 0 -21 16 -41 35 -21 19 -43 35 -50 35 -24 0 -39 -29 -33 -65
5 -30 3 -35 -15 -35 -11 0 -22 8 -25 20 -3 11 -13 20 -23 20 -21 0 -32 -33
-24 -74 6 -35 -10 -27 -32 16 -11 21 -15 47 -12 80 5 48 35 103 56 103 6 0 13
3 17 7 18 18 66 3 98 -31z m-998 10 c-3 -5 -1 -12 5 -16 20 -12 10 -51 -20
-73 -16 -12 -34 -22 -39 -22 -10 0 -71 70 -71 81 0 7 57 19 93 20 9 0 17 4 17
10 0 5 5 9 11 9 5 0 8 -4 4 -9z m2192 -150 l114 -123 -22 -24 c-12 -13 -26
-24 -29 -24 -4 0 -60 63 -124 141 -114 136 -117 141 -100 160 21 24 16 28 161
-130z m-527 100 c0 -4 -3 -11 -7 -14 -8 -9 -34 13 -28 24 6 9 35 1 35 -10z
m-1155 -1 c3 -5 15 -10 26 -10 10 0 19 -4 19 -10 0 -5 -10 -9 -21 -7 -20 2
-22 -3 -23 -53 -1 -49 -3 -55 -23 -58 -13 -2 -23 1 -23 7 0 6 -5 11 -11 11 -5
0 -7 -5 -4 -10 3 -6 -1 -13 -9 -16 -9 -3 -16 -15 -16 -25 0 -12 -7 -19 -20
-19 -11 0 -20 5 -20 12 0 6 3 9 6 5 4 -3 18 10 31 31 23 33 24 39 12 61 -13
24 -12 27 21 58 38 35 46 38 55 23z m-647 -32 c18 -18 14 -46 -8 -58 -11 -6
-20 -16 -20 -22 0 -14 -48 -58 -64 -58 -7 0 -20 6 -30 13 -16 12 -16 14 8 40
25 27 46 35 46 17 0 -5 8 -10 17 -10 13 0 14 3 5 12 -24 24 -8 78 23 78 6 0
16 -5 23 -12z m471 -113 c2 -14 -2 -17 -17 -13 -11 3 -33 -3 -49 -13 -30 -20
-25 -26 7 -9 16 9 21 6 26 -14 11 -46 -10 -57 -59 -31 -15 8 -25 10 -22 5 4
-6 1 -10 -4 -10 -22 0 -10 19 41 64 54 48 70 52 77 21z m171 -40 c0 -8 -4 -15
-9 -15 -5 0 -11 7 -15 15 -3 9 0 15 9 15 8 0 15 -7 15 -15z m-1686 -11 c8 -22
8 -24 -8 -24 -18 0 -29 16 -21 30 9 15 22 12 29 -6z m3276 -10 c0 30 128 -112
178 -198 l23 -39 -23 -24 -22 -23 -30 37 c-17 21 -55 63 -84 93 -67 69 -103
128 -96 157 6 21 7 21 30 6 13 -8 24 -12 24 -9z m-2303 1 c0 -8 -4 -12 -9 -9
-4 3 -8 9 -8 15 0 5 4 9 8 9 5 0 9 -7 9 -15z m-117 1 c0 -2 -7 -6 -15 -10 -8
-3 -15 -1 -15 4 0 6 7 10 15 10 8 0 15 -2 15 -4z m1500 -26 c-19 -17 -39 -30
-44 -30 -5 0 8 13 30 30 50 38 59 38 14 0z m-674 -4 c7 -30 -1 -46 -25 -46
-26 0 -54 43 -38 59 20 20 56 13 63 -13z m-313 -19 c-3 -5 -9 -3 -14 4 -7 12
-9 12 -9 0 0 -8 -3 -11 -6 -8 -4 4 -1 14 6 22 10 12 15 13 21 3 4 -6 5 -16 2
-21z m-441 -25 c-13 -4 -62 16 -62 26 0 20 14 20 42 -1 16 -12 25 -23 20 -25z
m-398 -40 c13 -47 -5 -62 -61 -50 -24 5 -43 13 -43 18 0 5 6 7 14 4 10 -4 12
2 8 22 -3 17 -1 25 5 21 6 -4 16 0 23 9 20 23 43 13 54 -24z m451 26 c14 -6
25 -15 25 -19 0 -11 -38 1 -51 17 -14 17 -8 18 26 2z m673 -35 c5 -17 -26 -29
-40 -15 -6 6 -7 15 -3 22 9 14 37 9 43 -7z m-461 -57 c-8 -9 -20 -16 -25 -16
-10 0 -22 23 -22 40 0 15 34 17 49 4 12 -11 12 -15 -2 -28z m33 -42 c0 -10 -7
-14 -22 -12 -32 5 -35 28 -4 28 17 0 26 -5 26 -16z m985 6 c-3 -5 6 -12 20
-16 27 -7 28 -9 15 -39 -5 -11 -9 -14 -9 -7 -1 7 -10 22 -21 34 -17 18 -19 38
-4 38 3 0 2 -4 -1 -10z m115 0 c22 14 34 12 21 -4 -9 -11 -9 -15 2 -18 13 -3
13 -5 1 -16 -11 -10 -14 -10 -14 2 0 8 -10 16 -22 18 -12 2 -24 10 -26 18 -4
12 -2 13 9 3 10 -8 20 -9 29 -3z m-956 -25 c29 -12 36 -21 37 -43 1 -35 12
-64 24 -61 6 1 14 -10 20 -25 8 -25 6 -31 -25 -57 -19 -16 -51 -34 -71 -40
-32 -10 -42 -9 -76 11 -48 26 -73 66 -73 114 0 27 9 44 38 76 43 44 67 49 126
25z m-759 -5 c-3 -5 -12 -10 -18 -10 -7 0 -6 4 3 10 19 12 23 12 15 0z m382
-12 c19 -24 22 -47 8 -58 -10 -8 -20 -5 -41 13 -24 21 -26 27 -15 41 16 19 35
21 48 4z m2580 -70 c38 -46 88 -109 111 -140 23 -32 69 -89 102 -129 58 -69
59 -71 43 -95 -9 -14 -19 -21 -23 -17 -4 4 -61 67 -126 138 -133 144 -234 262
-234 272 0 9 42 53 51 53 4 0 38 -37 76 -82z m-1279 54 c2 -7 -3 -12 -12 -12
-9 0 -16 7 -16 16 0 17 22 14 28 -4z m-744 -1 c10 -16 -5 -41 -24 -41 -23 0
-32 13 -24 34 7 17 39 22 48 7z m-984 -17 c0 -2 -12 -4 -27 -4 -21 0 -24 3
-14 9 13 8 41 5 41 -5z m1514 4 c-3 -4 -11 -5 -19 -1 -21 7 -19 12 4 10 11 0
18 -5 15 -9z m-1565 -39 c-22 -14 -33 -10 -19 6 7 8 17 12 22 9 6 -4 5 -10 -3
-15z m41 11 c0 -5 -4 -10 -10 -10 -5 0 -10 5 -10 10 0 6 5 10 10 10 6 0 10 -4
10 -10z m910 -10 c0 -5 -4 -10 -10 -10 -5 0 -10 5 -10 10 0 6 5 10 10 10 6 0
10 -4 10 -10z m-962 -51 c-3 -8 -7 -3 -11 10 -4 17 -3 21 5 13 5 -5 8 -16 6
-23z m47 21 c8 -13 -5 -13 -25 0 -13 8 -13 10 2 10 9 0 20 -4 23 -10z m0 -30
c18 -8 17 -9 -7 -9 -16 -1 -28 4 -28 9 0 12 8 12 35 0z m-145 -20 c0 -21 -15
-27 -25 -10 -7 12 2 30 16 30 5 0 9 -9 9 -20z m601 -13 c-16 -16 -26 0 -10 19
9 11 15 12 17 4 2 -6 -1 -17 -7 -23z m-516 -9 c5 15 15 22 32 22 21 0 23 -2
13 -15 -7 -8 -16 -12 -21 -9 -12 7 -11 -3 1 -27 9 -16 7 -21 -15 -29 -15 -6
-28 -10 -31 -10 -2 0 -4 21 -3 48 1 38 2 42 9 22 l8 -25 7 23z m705 2 c0 -5 8
-6 18 -3 15 6 15 5 3 -10 -15 -19 -48 -22 -71 -7 -12 8 -10 10 8 10 13 0 20 4
17 10 -3 6 1 10 9 10 9 0 16 -4 16 -10z m-748 -50 c-3 -24 -9 -30 -30 -30
l-26 0 29 30 c16 17 29 30 30 30 1 0 0 -13 -3 -30z m1428 -35 c0 -23 -5 -35
-14 -35 -18 0 -26 32 -14 54 15 27 28 18 28 -19z m-380 11 c0 -8 -4 -17 -9
-21 -12 -7 -24 12 -16 25 9 15 25 12 25 -4z m-1390 -22 c0 -2 -15 -23 -32 -46
-28 -36 -38 -42 -62 -40 l-29 4 31 18 c17 11 38 33 47 49 10 20 20 28 30 25 8
-4 15 -8 15 -10z m1075 -4 c3 -5 1 -10 -4 -10 -6 0 -11 5 -11 10 0 6 2 10 4
10 3 0 8 -4 11 -10z m-17 -28 c2 -7 -3 -12 -12 -12 -9 0 -16 7 -16 16 0 17 22
14 28 -4z m393 -35 c-6 -6 -14 -7 -18 -3 -4 4 -1 11 7 16 8 6 11 10 7 10 -5 0
-5 6 0 13 5 9 9 7 11 -7 2 -10 -1 -23 -7 -29z m-731 -107 c0 -5 -5 -10 -11
-10 -5 0 -7 5 -4 10 3 6 8 10 11 10 2 0 4 -4 4 -10z m1520 -34 c0 -8 -5 -18
-11 -22 -14 -8 -33 11 -25 25 10 16 36 13 36 -3z m-1780 -132 c0 -8 -4 -12
-10 -9 -5 3 -10 10 -10 16 0 5 5 9 10 9 6 0 10 -7 10 -16z m1922 -114 c13 -16
16 -26 8 -28 -12 -4 -120 96 -120 111 0 12 89 -54 112 -83z m-217 20 c3 -5 1
-10 -4 -10 -6 0 -11 5 -11 10 0 6 2 10 4 10 3 0 8 -4 11 -10z m35 -29 c0 -16
-28 -20 -40 -5 -10 12 -8 14 14 14 14 0 26 -4 26 -9z m30 -1 c0 -5 -4 -10 -10
-10 -5 0 -10 5 -10 10 0 6 5 10 10 10 6 0 10 -4 10 -10z m334 -60 c12 -26 12
-30 0 -30 -8 0 -14 6 -14 14 0 7 -10 21 -22 29 l-23 16 22 0 c14 1 27 -9 37
-29z m-274 -5 c15 -18 6 -45 -13 -45 -8 0 -20 7 -27 15 -10 12 -10 18 0 30 16
19 24 19 40 0z m914 -1 c4 -9 4 -19 2 -21 -8 -8 -26 8 -26 23 0 19 16 18 24
-2z m-1434 -31 c0 -9 6 -12 19 -8 21 6 39 -12 50 -51 8 -30 31 -45 31 -20 0 9
5 16 10 16 6 0 10 8 11 18 0 9 3 12 5 5 3 -7 0 -22 -6 -34 -9 -17 -9 -23 0
-29 18 -11 4 -40 -19 -40 -22 0 -50 48 -52 89 -1 17 -3 20 -6 9 -7 -26 -15
-22 -45 23 -31 44 -37 69 -13 49 8 -7 15 -19 15 -27z m1358 10 c2 -8 -5 -13
-17 -13 -12 0 -21 6 -21 16 0 18 31 15 38 -3z m-1598 -34 c0 -11 -4 -17 -10
-14 -5 3 -10 13 -10 21 0 8 5 14 10 14 6 0 10 -9 10 -21z m930 17 c0 -3 -4 -8
-10 -11 -5 -3 -10 -1 -10 4 0 6 5 11 10 11 6 0 10 -2 10 -4z m-240 -38 c0 -6
-7 -8 -15 -4 -9 3 -15 0 -15 -9 0 -8 -4 -15 -10 -15 -13 0 -13 6 0 30 10 19
40 17 40 -2z m965 -18 c-10 -16 -35 7 -28 27 5 13 7 13 21 0 8 -8 11 -20 7
-27z m-695 20 c0 -5 -6 -10 -14 -10 -8 0 -18 5 -21 10 -3 6 3 10 14 10 12 0
21 -4 21 -10z m139 -14 c19 -23 25 -80 9 -93 -23 -19 -96 -24 -102 -6 -10 26
5 35 27 16 20 -18 20 -18 14 6 -6 26 16 91 31 91 5 0 15 -6 21 -14z m-125 -21
c-4 -8 -10 -15 -15 -15 -5 0 -9 7 -9 15 0 8 7 15 15 15 9 0 12 -6 9 -15z
m-196 -7 c34 -44 15 -98 -36 -98 -19 0 -23 -4 -19 -20 7 -28 0 -25 -47 17 -39
36 -41 36 -44 15 -3 -20 -5 -21 -31 -8 -38 20 -53 40 -45 61 5 13 14 15 38 11
50 -10 65 -8 94 13 31 23 75 27 90 9z m952 -9 c0 -6 -4 -7 -10 -4 -5 3 -10 11
-10 16 0 6 5 7 10 4 6 -3 10 -11 10 -16z m-1670 -10 c0 -6 -4 -7 -10 -4 -5 3
-10 11 -10 16 0 6 5 7 10 4 6 -3 10 -11 10 -16z m120 -34 c0 -33 -18 -32 -30
1 -15 38 -13 46 10 34 12 -6 20 -21 20 -35z m780 15 c0 -5 -4 -10 -10 -10 -5
0 -10 5 -10 10 0 6 5 10 10 10 6 0 10 -4 10 -10z m436 -2 c5 -8 2 -9 -10 -5
-14 5 -17 3 -12 -8 7 -19 -8 -20 -23 -1 -10 11 -8 15 6 19 30 8 32 7 39 -5z
m-1326 -8 c0 -5 -2 -10 -4 -10 -3 0 -8 5 -11 10 -3 6 -1 10 4 10 6 0 11 -4 11
-10z m920 -31 c0 -22 -13 -25 -29 -6 -8 10 -7 17 1 25 15 15 28 6 28 -19z
m208 19 c8 -8 8 -17 1 -31 -8 -13 -8 -22 0 -30 13 -13 15 -47 2 -47 -15 0 -33
29 -27 45 3 8 1 26 -4 39 -12 33 4 48 28 24z m212 -34 c0 -17 -22 -14 -28 4
-2 7 3 12 12 12 9 0 16 -7 16 -16z m-1281 -28 c-3 -3 -11 5 -18 17 -13 21 -12
21 5 5 10 -10 16 -20 13 -22z m1910 10 c43 -22 54 -41 41 -65 -6 -12 -18 -21
-27 -21 -9 0 -21 -7 -28 -16 -7 -11 -19 -14 -32 -10 -28 9 -39 83 -16 108 19
22 26 22 62 4z m-1739 -27 c0 -5 -4 -9 -10 -9 -5 0 -10 7 -10 16 0 8 5 12 10
9 6 -3 10 -10 10 -16z m-115 -9 c3 -5 1 -10 -4 -10 -6 0 -11 5 -11 10 0 6 2
10 4 10 3 0 8 -4 11 -10z m340 -24 c23 -16 14 -46 -14 -46 -26 0 -45 32 -29
48 15 15 20 15 43 -2z m941 3 c10 -17 -13 -36 -27 -22 -12 12 -4 33 11 33 5 0
12 -5 16 -11z m-1164 -24 c-2 -14 -9 -25 -14 -25 -6 0 -7 7 -4 16 3 9 6 20 6
25 0 5 4 9 9 9 4 0 6 -11 3 -25z m-165 -37 c-3 -8 -6 -5 -6 6 -1 11 2 17 5 13
3 -3 4 -12 1 -19z m-37 -4 c0 -17 -22 -14 -28 4 -2 7 3 12 12 12 9 0 16 -7 16
-16z m1028 -29 c-3 -3 -13 7 -23 22 l-17 28 23 -22 c12 -12 20 -25 17 -28z
m-1087 -1 c17 -20 6 -27 -30 -19 -28 6 -40 23 -25 37 8 9 42 -2 55 -18z m619
11 c0 -8 -7 -15 -15 -15 -16 0 -20 12 -8 23 11 12 23 8 23 -8z m-349 -18 c-1
-12 -15 -9 -19 4 -3 6 1 10 8 8 6 -3 11 -8 11 -12z m437 -8 c4 -19 -27 -34
-41 -20 -14 14 0 43 20 39 10 -2 19 -10 21 -19z m659 -1 c-3 -8 -6 -5 -6 6 -1
11 2 17 5 13 3 -3 4 -12 1 -19z m441 -9 c-3 -8 -7 -3 -11 10 -4 17 -3 21 5 13
5 -5 8 -16 6 -23z m-1057 8 c-1 -12 -15 -9 -19 4 -3 6 1 10 8 8 6 -3 11 -8 11
-12z m-674 -10 c3 -4 -5 -7 -20 -7 -14 0 -28 4 -32 9 -6 11 41 8 52 -2z m1137
-15 c9 -14 -12 -35 -28 -29 -23 9 -20 37 3 37 11 0 22 -4 25 -8z m-1214 -33
c0 -6 -4 -7 -10 -4 -5 3 -10 11 -10 16 0 6 5 7 10 4 6 -3 10 -11 10 -16z
m1055 1 c10 -16 -14 -50 -30 -44 -15 6 -20 35 -8 47 10 10 31 8 38 -3z m-1328
-22 c-3 -8 -6 -5 -6 6 -1 11 2 17 5 13 3 -3 4 -12 1 -19z m93 2 c0 -5 -4 -10
-10 -10 -5 0 -10 5 -10 10 0 6 5 10 10 10 6 0 10 -4 10 -10z m90 0 c0 -5 -2
-10 -4 -10 -3 0 -8 5 -11 10 -3 6 -1 10 4 10 6 0 11 -4 11 -10z m78 -14 c3
-12 -1 -17 -10 -14 -7 3 -15 13 -16 22 -3 12 1 17 10 14 7 -3 15 -13 16 -22z
m-98 -12 c0 -8 -4 -12 -10 -9 -5 3 -10 10 -10 16 0 5 5 9 10 9 6 0 10 -7 10
-16z m1807 4 c6 -7 13 -22 17 -32 6 -16 4 -17 -9 -6 -21 18 -38 50 -27 50 5 0
14 -6 19 -12z m-1622 -8 c8 -13 -13 -40 -31 -40 -8 0 -14 10 -14 25 0 18 5 25
19 25 11 0 23 -5 26 -10z m539 -9 c8 -12 -21 -34 -34 -26 -17 11 -11 35 9 35
11 0 22 -4 25 -9z m666 -36 c10 -12 9 -16 -4 -21 -9 -3 -23 -3 -32 0 -13 5
-14 9 -4 21 16 19 24 19 40 0z m-1610 -45 c0 -5 -4 -10 -10 -10 -5 0 -10 5
-10 10 0 6 5 10 10 10 6 0 10 -4 10 -10z m146 -57 c-11 -11 -19 6 -11 24 8 17
8 17 12 0 3 -10 2 -21 -1 -24z m222 -11 c-2 -14 -8 -27 -15 -29 -14 -5 -28 40
-19 63 10 25 38 -3 34 -34z m375 23 c7 -16 -8 -29 -23 -20 -15 9 -12 35 4 35
8 0 16 -7 19 -15z m465 -20 c-3 -3 -9 2 -12 12 -6 14 -5 15 5 6 7 -7 10 -15 7
-18z m-1398 -73 c0 -15 -2 -15 -10 -2 -13 20 -13 33 0 25 6 -3 10 -14 10 -23z
m1197 -48 c1 -5 -2 -16 -7 -24 -12 -20 -35 2 -26 25 6 17 27 16 33 -1z m98 -4
c3 -5 1 -10 -4 -10 -6 0 -11 5 -11 10 0 6 2 10 4 10 3 0 8 -4 11 -10z m232
-16 c1 -5 -1 -15 -5 -22 -10 -15 -42 -5 -42 13 0 22 40 30 47 9z m-510 -40
c-9 -9 -28 6 -21 18 4 6 10 6 17 -1 6 -6 8 -13 4 -17z m-707 -28 c0 -16 -18
-31 -27 -22 -8 8 5 36 17 36 5 0 10 -6 10 -14z m820 -62 c0 -8 -4 -12 -10 -9
-5 3 -10 10 -10 16 0 5 5 9 10 9 6 0 10 -7 10 -16z"/>
<path d="M1795 2041 c-3 -6 -4 -15 -1 -20 9 -14 41 -6 41 10 0 17 -31 24 -40
10z"/>
<path d="M4394 3088 c-19 -23 -19 -23 2 -6 19 17 21 17 39 0 19 -17 19 -17 1
6 -11 12 -20 22 -21 22 -1 0 -10 -10 -21 -22z"/>
<path d="M4010 2794 c-38 -35 -46 -59 -15 -47 8 3 16 1 16 -3 6 -37 5 -54 -2
-54 -4 0 -10 -9 -14 -19 -7 -23 -44 -34 -62 -19 -7 6 -13 6 -13 1 0 -5 -14
-10 -31 -11 -29 -2 -31 -1 -18 15 7 10 -10 -4 -39 -32 -48 -45 -71 -73 -39
-46 8 6 17 8 20 4 4 -3 7 -1 7 6 0 7 4 10 10 6 11 -7 3 -32 -20 -62 -13 -17
-20 -19 -29 -10 -8 8 -11 8 -11 -1 0 -7 -6 -12 -14 -12 -10 0 -13 -7 -11 -20
3 -16 -3 -22 -26 -27 -16 -3 -29 -8 -29 -12 1 -3 34 -42 74 -85 l73 -79 191
184 191 183 -36 46 c-107 133 -121 141 -173 94z"/>
<path d="M3721 2517 c-21 -22 -27 -34 -17 -34 8 0 13 4 10 8 -2 4 8 17 22 28
15 12 25 23 22 26 -2 3 -19 -10 -37 -28z"/>
<path d="M2961 2436 c-8 -9 -8 -21 0 -45 13 -37 24 -36 47 1 13 22 13 29 3 42
-16 20 -35 20 -50 2z"/>
<path d="M3021 2345 c-20 -50 -21 -55 -11 -55 15 0 32 39 27 63 -3 20 -4 19
-16 -8z"/>
<path d="M3026 1925 c-9 -25 -8 -27 17 -23 12 2 22 10 22 18 0 21 -31 24 -39
5z"/>
<path d="M2290 1940 c0 -5 7 -10 15 -10 8 0 15 5 15 10 0 6 -7 10 -15 10 -8 0
-15 -4 -15 -10z"/>
<path d="M3440 5464 c0 -14 3 -14 15 -4 8 7 15 14 15 16 0 2 -7 4 -15 4 -8 0
-15 -7 -15 -16z"/>
<path d="M3380 5411 c0 -12 6 -21 15 -21 8 0 15 4 15 9 0 5 -7 14 -15 21 -13
10 -15 9 -15 -9z"/>
<path d="M4827 5028 l-125 -132 48 -38 c50 -40 70 -47 70 -25 0 6 5 4 11 -6 9
-15 13 -16 26 -6 8 7 42 18 76 24 l62 11 3 67 c2 37 7 67 13 67 6 0 9 -13 7
-29 -2 -22 5 -36 25 -55 16 -14 33 -26 39 -26 6 0 8 -3 4 -7 -4 -5 -18 -8 -29
-8 -15 0 -22 -6 -21 -18 2 -13 -3 -16 -17 -12 -23 7 -82 -22 -76 -38 2 -7 19
-13 38 -15 34 -3 65 15 113 65 39 41 46 52 46 72 0 32 15 32 39 0 13 -17 25
-28 29 -25 8 8 -49 67 -59 60 -8 -4 -34 35 -31 46 2 7 -149 160 -158 160 -5 0
-64 -59 -133 -132z m63 -88 c0 -5 -5 -10 -11 -10 -5 0 -7 5 -4 10 3 6 8 10 11
10 2 0 4 -4 4 -10z m80 -22 c0 -4 -6 -8 -14 -8 -8 0 -17 4 -20 8 -2 4 4 8 15
8 10 0 19 -4 19 -8z m-145 -18 c-9 -14 8 -13 23 2 9 9 12 9 12 0 0 -7 -4 -12
-9 -12 -5 0 -17 -7 -25 -16 -24 -23 -39 -13 -21 14 16 21 32 32 20 12z"/>
<path d="M2632 5084 c-27 -18 -28 -45 -4 -67 27 -25 40 -21 59 18 13 28 14 37
3 50 -16 19 -30 19 -58 -1z"/>
<path d="M2810 4955 c0 -9 5 -15 11 -13 6 2 11 8 11 13 0 5 -5 11 -11 13 -6 2
-11 -4 -11 -13z"/>
<path d="M709 4789 c-57 -72 -106 -135 -107 -140 -6 -14 147 -287 171 -308 11
-9 78 11 284 85 l52 19 10 60 c22 132 24 165 10 165 -11 0 -11 2 -1 8 7 5 15
31 18 58 l6 50 -80 37 c-106 48 -229 97 -246 97 -7 0 -60 -59 -117 -131z m341
-155 c12 -32 6 -44 -24 -44 -30 0 -49 23 -41 50 10 30 53 27 65 -6z m-260
-190 c0 -8 -4 -12 -10 -9 -5 3 -10 10 -10 16 0 5 5 9 10 9 6 0 10 -7 10 -16z"/>
<path d="M4431 4899 c-38 -15 -81 -49 -81 -64 0 -9 6 -12 17 -8 12 5 14 3 8
-8 -4 -8 2 -3 15 9 16 18 25 21 30 12 4 -7 13 -9 19 -5 9 5 9 10 1 20 -9 10
-6 19 9 34 23 23 19 25 -18 10z"/>
<path d="M4460 4886 c0 -2 7 -6 15 -10 8 -3 15 -1 15 4 0 6 -7 10 -15 10 -8 0
-15 -2 -15 -4z"/>
<path d="M4680 4865 c0 -8 5 -15 10 -15 13 0 45 -32 53 -53 7 -19 27 -23 27
-6 0 5 -11 27 -25 47 -14 20 -25 33 -25 29 0 -4 -9 -3 -20 3 -16 9 -20 8 -20
-5z"/>
<path d="M5220 4865 c0 -8 7 -15 16 -15 14 0 14 3 4 15 -7 8 -14 15 -16 15 -2
0 -4 -7 -4 -15z"/>
<path d="M4873 4805 c0 -8 4 -15 9 -15 4 0 8 4 8 9 0 6 -4 12 -8 15 -5 3 -9
-1 -9 -9z"/>
<path d="M4290 4783 c-14 -18 -17 -30 -10 -37 13 -13 13 -36 0 -36 -5 0 -7 8
-4 18 3 9 -2 6 -10 -8 -19 -31 -20 -41 -3 -37 6 1 11 -3 10 -10 -2 -9 4 -10
24 -2 19 7 28 6 33 -2 6 -8 13 -8 26 0 18 10 17 10 -4 11 -28 0 -42 33 -38 89
2 23 2 41 0 41 -1 0 -12 -12 -24 -27z"/>
<path d="M3885 4790 c-8 -13 4 -32 16 -25 12 8 12 35 0 35 -6 0 -13 -4 -16
-10z"/>
<path d="M5280 4770 c0 -12 5 -17 14 -14 19 7 29 -25 14 -45 -12 -14 -11 -14
5 -2 15 12 17 10 17 -19 0 -25 3 -31 16 -26 9 3 18 6 20 6 12 0 0 25 -32 70
-38 53 -54 62 -54 30z m75 -70 c3 -5 1 -10 -4 -10 -6 0 -11 5 -11 10 0 6 2 10
4 10 3 0 8 -4 11 -10z"/>
<path d="M3860 4719 c7 -11 14 -19 16 -16 7 7 -7 37 -17 37 -6 0 -5 -9 1 -21z"/>
<path d="M5253 4694 c-3 -9 0 -20 8 -25 23 -14 29 -11 29 16 0 28 -27 35 -37
9z"/>
<path d="M4394 4671 c0 -15 3 -17 13 -9 7 6 13 14 13 19 0 5 -6 9 -13 9 -7 0
-13 -9 -13 -19z"/>
<path d="M4440 4635 c-13 -14 -21 -25 -17 -25 3 0 18 11 33 25 15 14 23 25 17
25 -5 0 -20 -11 -33 -25z"/>
<path d="M4365 4640 c3 -5 8 -10 11 -10 2 0 4 5 4 10 0 6 -5 10 -11 10 -5 0
-7 -4 -4 -10z"/>
<path d="M5018 4638 c-13 -38 28 -72 58 -47 26 21 13 54 -22 57 -20 2 -34 -2
-36 -10z"/>
<path d="M4625 4631 c-8 -7 -6 -21 3 -21 5 0 17 6 28 14 18 14 18 15 -4 13
-13 -1 -25 -3 -27 -6z"/>
<path d="M1360 4590 c49 -43 60 -48 60 -26 0 21 -58 66 -83 66 -19 -1 -15 -6
23 -40z"/>
<path d="M1260 4580 c-13 -8 -13 -11 2 -27 21 -20 45 -5 35 21 -7 18 -16 20
-37 6z"/>
<path d="M5401 4570 c-13 -11 -17 -20 -10 -20 7 0 20 7 30 16 16 14 17 12 17
-33 0 -26 -5 -54 -11 -61 -5 -7 -7 -16 -3 -20 8 -7 56 46 56 62 0 13 -40 76
-48 76 -4 -1 -18 -10 -31 -20z"/>
<path d="M3486 4571 c-4 -7 -5 -15 -2 -18 9 -9 19 4 14 18 -4 11 -6 11 -12 0z"/>
<path d="M1533 4515 c-3 -9 -3 -19 1 -22 8 -9 37 18 30 28 -8 14 -24 11 -31
-6z"/>
<path d="M3557 4524 c-13 -13 -7 -55 8 -60 21 -9 47 15 43 40 -3 21 -37 34
-51 20z"/>
<path d="M4822 4503 c2 -10 12 -18 23 -18 11 0 21 8 23 18 3 13 -3 17 -23 17
-20 0 -26 -4 -23 -17z"/>
<path d="M4660 4479 c0 -14 5 -19 17 -17 26 5 29 38 4 38 -15 0 -21 -6 -21
-21z"/>
<path d="M5487 4479 c-5 -18 -1 -29 14 -42 30 -24 32 -17 10 28 -17 36 -18 36
-24 14z"/>
<path d="M4630 4446 c0 -9 7 -16 16 -16 9 0 14 5 12 12 -6 18 -28 21 -28 4z"/>
<path d="M2320 4428 c-30 -33 -24 -97 11 -117 57 -32 111 19 89 84 -9 28 -43
55 -70 55 -5 0 -19 -10 -30 -22z"/>
<path d="M3667 4443 c-4 -3 -7 -15 -7 -25 0 -28 34 -19 38 10 3 21 -16 31 -31
15z"/>
<path d="M4092 4428 c-18 -18 -15 -36 8 -48 24 -13 40 -6 40 19 0 16 -18 41
-30 41 -3 0 -11 -5 -18 -12z"/>
<path d="M480 4400 c11 -16 26 -33 32 -36 7 -4 -1 9 -16 29 -34 44 -46 50 -16
7z"/>
<path d="M3546 4406 c3 -9 11 -16 16 -16 13 0 5 23 -10 28 -7 2 -10 -2 -6 -12z"/>
<path d="M1337 4397 c-7 -20 18 -43 28 -27 4 7 1 19 -7 27 -14 13 -16 13 -21
0z"/>
<path d="M5521 4397 c-8 -11 -7 -18 7 -31 10 -9 22 -13 26 -9 4 4 9 -3 13 -15
3 -12 9 -22 14 -22 5 0 -1 20 -13 45 -24 48 -29 52 -47 32z"/>
<path d="M2492 4378 c-7 -7 -12 -24 -12 -39 0 -15 -7 -32 -15 -39 -11 -9 -13
-16 -6 -23 7 -7 15 -6 26 3 12 10 15 10 15 -3 0 -8 7 -17 15 -21 8 -3 15 -12
15 -21 0 -17 16 -20 25 -5 4 6 -5 20 -20 31 -18 15 -24 27 -19 41 4 13 2 18
-4 14 -6 -4 -8 8 -5 34 6 43 4 47 -15 28z"/>
<path d="M4614 4379 c-8 -13 -123 -69 -141 -69 -7 0 -13 7 -13 15 0 8 -4 15
-9 15 -22 0 -17 -17 15 -49 28 -29 36 -32 49 -21 8 7 15 20 15 30 0 10 16 24
40 35 40 18 82 55 62 55 -6 0 -14 -5 -18 -11z"/>
<path d="M4959 4350 c-14 -11 -18 -19 -11 -20 19 0 52 19 52 30 0 16 -16 12
-41 -10z"/>
<path d="M535 4330 c10 -11 20 -20 23 -20 3 0 -3 9 -13 20 -10 11 -20 20 -23
20 -3 0 3 -9 13 -20z"/>
<path d="M1241 4343 c-1 -17 16 -25 25 -12 4 7 3 9 -4 5 -5 -3 -13 0 -15 6 -4
9 -6 10 -6 1z"/>
<path d="M1028 4310 c28 -27 28 -34 0 -20 -22 11 -22 10 -4 -4 25 -20 30 -20
47 1 10 11 10 14 2 9 -9 -5 -13 0 -13 13 0 16 -6 21 -27 21 l-27 0 22 -20z"/>
<path d="M1182 4312 c-10 -7 -8 -13 7 -26 21 -19 35 -8 25 18 -7 18 -13 19
-32 8z"/>
<path d="M4785 4310 c-7 -12 2 -30 16 -30 5 0 9 9 9 20 0 21 -15 27 -25 10z"/>
<path d="M330 4289 c0 -5 9 -9 20 -9 11 0 20 2 20 4 0 2 -9 6 -20 9 -11 3 -20
1 -20 -4z"/>
<path d="M2620 4291 c0 -20 28 -33 49 -21 32 16 25 30 -14 30 -19 0 -35 -4
-35 -9z"/>
<path d="M569 4277 c7 -7 14 -8 21 -1 6 6 2 10 -12 11 -16 2 -18 -1 -9 -10z"/>
<path d="M4406 4268 c-24 -34 -19 -44 9 -18 14 13 25 27 25 32 0 16 -19 8 -34
-14z"/>
<path d="M619 4239 c7 -37 45 -69 54 -46 5 13 -41 77 -55 77 -3 0 -3 -14 1
-31z"/>
<path d="M780 4255 c0 -8 5 -15 10 -15 6 0 10 7 10 15 0 8 -4 15 -10 15 -5 0
-10 -7 -10 -15z"/>
<path d="M4645 4260 c-3 -5 1 -10 9 -10 9 0 16 5 16 10 0 6 -4 10 -9 10 -6 0
-13 -4 -16 -10z"/>
<path d="M384 4239 c-3 -6 -1 -16 5 -22 17 -17 13 -27 -9 -27 -24 0 -24 0 -4
-49 19 -48 40 -58 189 -100 115 -32 150 -38 140 -21 -3 6 1 7 9 4 9 -3 14 -10
11 -14 -5 -9 29 -20 63 -20 21 0 16 9 -44 76 -49 55 -73 74 -86 71 -15 -4 -18
-1 -12 15 4 13 2 18 -4 14 -6 -3 -13 2 -17 13 -3 11 -12 22 -20 25 -25 9 -65
-12 -65 -33 0 -34 -18 -33 -45 3 -15 19 -42 44 -61 55 -41 24 -41 24 -50 10z
m254 -177 c6 -18 -15 -14 -22 4 -4 10 -1 14 6 12 6 -2 14 -10 16 -16z"/>
<path d="M2580 4240 c0 -5 5 -10 11 -10 5 0 7 5 4 10 -3 6 -8 10 -11 10 -2 0
-4 -4 -4 -10z"/>
<path d="M254 4184 c-48 -108 -94 -236 -88 -245 3 -5 12 -9 20 -9 9 0 14 -6
11 -12 -7 -20 13 -50 28 -44 8 3 17 1 20 -4 12 -20 32 -9 43 23 7 17 10 22 8
10 -4 -24 8 -31 20 -12 4 7 17 0 35 -17 23 -22 29 -24 29 -11 0 9 6 17 13 18
6 0 -1 6 -18 12 -16 7 -39 17 -50 24 -19 11 -19 13 12 45 25 26 32 42 34 78 2
54 -31 144 -66 179 l-24 25 -27 -60z"/>
<path d="M835 4220 c-3 -5 1 -10 9 -10 26 0 18 -19 -11 -26 -26 -7 -26 -7 -5
-15 43 -16 71 18 40 49 -15 15 -25 15 -33 2z"/>
<path d="M968 4199 c-10 -5 -18 -19 -18 -30 0 -17 -5 -20 -27 -15 -16 3 -39
-1 -53 -9 -24 -13 -24 -14 -5 -21 11 -4 34 -12 51 -19 37 -15 80 -13 77 3 -2
7 6 12 16 12 10 0 21 7 25 15 8 21 -9 61 -29 69 -20 7 -16 8 -37 -5z"/>
<path d="M4410 4200 c0 -5 7 -10 15 -10 8 0 15 5 15 10 0 6 -7 10 -15 10 -8 0
-15 -4 -15 -10z"/>
<path d="M1178 4163 c7 -3 16 -2 19 1 4 3 -2 6 -13 5 -11 0 -14 -3 -6 -6z"/>
<path d="M4363 4155 c-19 -20 -16 -25 13 -25 18 0 25 5 22 17 -4 22 -20 26
-35 8z"/>
<path d="M760 4152 c0 -10 33 -42 43 -42 14 0 6 38 -9 44 -22 8 -34 8 -34 -2z"/>
<path d="M2623 4149 c-6 -6 -9 -17 -7 -23 3 -7 -6 -18 -20 -25 -37 -20 -52
-54 -33 -81 12 -18 15 -19 21 -5 3 9 19 21 36 26 16 6 27 15 24 20 -3 5 2 9
10 9 9 0 16 5 16 10 0 6 9 10 19 10 11 0 23 5 27 12 4 7 3 8 -4 4 -7 -4 -12
-1 -12 8 0 9 -5 16 -11 16 -6 0 -9 7 -5 15 6 17 -9 21 -19 5 -5 -8 -11 -8 -19
-1 -9 7 -16 7 -23 0z"/>
<path d="M1093 4124 c-8 -21 16 -35 40 -23 14 8 16 13 6 25 -15 19 -38 18 -46
-2z"/>
<path d="M390 4060 c0 -5 7 -10 15 -10 8 0 15 -7 15 -15 0 -16 18 -19 38 -7 8
6 1 13 -23 25 -42 20 -45 20 -45 7z"/>
<path d="M543 3983 c-17 -36 -17 -39 8 -62 16 -14 19 -24 11 -37 -12 -22 -4
-54 14 -54 8 0 14 5 14 10 0 15 21 12 42 -7 17 -15 21 -15 54 0 33 16 34 18
20 39 -9 13 -12 26 -7 32 5 6 11 21 13 34 l3 22 60 -28 c58 -28 61 -28 97 -13
21 9 38 19 38 23 0 4 -44 17 -97 29 -70 16 -98 19 -101 11 -5 -16 -33 -15 -68
2 -16 8 -42 17 -59 20 -26 5 -32 2 -42 -21z m131 -88 c6 -18 -26 -37 -48 -29
-19 7 -20 11 -3 29 16 19 43 19 51 0z"/>
<path d="M3970 3983 c-13 -15 -12 -16 4 -10 10 4 20 7 22 7 2 0 4 5 4 10 0 15
-13 12 -30 -7z"/>
<path d="M3160 3976 c0 -7 7 -19 15 -26 12 -10 16 -9 21 3 3 9 3 21 -1 27 -9
15 -35 12 -35 -4z"/>
<path d="M432 3964 c2 -12 13 -20 28 -21 20 -2 21 -1 7 5 -10 4 -18 12 -17 17
1 5 -4 11 -10 13 -7 3 -10 -3 -8 -14z"/>
<path d="M2453 3928 c-23 -29 -22 -35 2 -31 15 3 32 -2 45 -15 36 -33 67 -4
41 37 -8 13 -12 13 -26 1 -15 -12 -18 -12 -26 3 -12 20 -23 22 -36 5z"/>
<path d="M158 3913 c7 -3 16 -2 19 1 4 3 -2 6 -13 5 -11 0 -14 -3 -6 -6z"/>
<path d="M5283 3894 c-3 -8 -1 -20 6 -27 14 -14 47 15 37 32 -10 16 -36 13
-43 -5z"/>
<path d="M5730 3885 c-19 -50 -10 -79 32 -101 16 -9 32 -13 35 -10 9 8 -31
129 -44 133 -7 3 -17 -7 -23 -22z"/>
<path d="M3160 3887 c0 -7 5 -18 11 -24 9 -9 9 -19 -1 -42 -14 -35 -8 -61 15
-61 24 0 17 -20 -11 -30 -18 -7 -31 -7 -40 0 -9 8 -19 8 -32 1 -15 -8 -23 -7
-32 4 -19 23 -31 18 -19 -9 16 -34 3 -74 -26 -88 -32 -14 -32 -35 1 -50 22
-10 28 -9 50 17 28 33 27 30 12 55 -18 28 2 46 33 30 20 -11 25 -10 37 9 8 11
21 21 29 21 12 0 13 -3 4 -14 -14 -17 8 -29 29 -16 12 7 12 13 0 35 -9 17 -11
29 -4 33 21 14 22 40 3 58 -11 10 -17 24 -15 31 6 13 -22 53 -36 53 -5 0 -8
-6 -8 -13z"/>
<path d="M445 3870 c-3 -5 -2 -16 2 -24 7 -12 11 -12 27 -1 10 8 15 18 11 24
-8 14 -32 14 -40 1z"/>
<path d="M143 3853 c-24 -9 -13 -31 16 -35 26 -4 29 -2 20 13 -11 22 -21 28
-36 22z"/>
<path d="M255 3820 c-2 -4 5 -16 16 -26 17 -15 22 -16 29 -4 5 8 7 17 4 21 -6
11 -44 18 -49 9z"/>
<path d="M365 3800 c-7 -12 12 -40 27 -40 13 0 6 43 -9 47 -6 2 -14 -1 -18 -7z"/>
<path d="M462 3771 c2 -22 6 -27 20 -23 21 5 21 7 8 33 -16 28 -31 23 -28 -10z"/>
<path d="M5564 3785 c-4 -9 0 -23 9 -32 21 -21 49 -9 45 19 -4 28 -45 38 -54
13z"/>
<path d="M2335 3779 c-4 -6 -5 -12 -2 -15 2 -3 7 2 10 11 7 17 1 20 -8 4z"/>
<path d="M2495 3779 c-9 -13 0 -22 25 -24 24 -2 34 21 14 29 -22 9 -32 7 -39
-5z"/>
<path d="M163 3751 c-9 -15 -9 -23 2 -37 19 -26 30 -11 19 26 -8 29 -10 29
-21 11z"/>
<path d="M218 3743 c-3 -17 25 -58 40 -58 4 0 12 -4 18 -7 6 -4 18 0 27 10 13
15 14 20 1 36 -14 20 -14 20 -28 1 -14 -19 -15 -19 -27 8 -14 31 -26 35 -31
10z"/>
<path d="M2372 3743 c2 -10 11 -19 21 -21 24 -5 21 15 -4 28 -18 10 -20 9 -17
-7z"/>
<path d="M96 3715 c-6 -30 -3 -39 16 -55 13 -11 26 -19 31 -20 13 0 7 21 -8
26 -10 4 -13 13 -10 25 4 11 2 19 -4 19 -15 0 -14 27 2 33 7 4 6 6 -4 6 -11 1
-19 -10 -23 -34z"/>
<path d="M662 3665 c-95 -46 -172 -87 -170 -91 2 -5 7 -8 13 -6 29 8 345 167
345 174 0 13 -8 10 -188 -77z"/>
<path d="M2526 3715 c4 -8 10 -12 15 -9 11 6 2 24 -11 24 -5 0 -7 -7 -4 -15z"/>
<path d="M380 3710 c-8 -5 -12 -12 -9 -15 8 -8 39 5 39 16 0 11 -11 11 -30 -1z"/>
<path d="M5370 3710 c0 -5 5 -10 11 -10 5 0 7 5 4 10 -3 6 -8 10 -11 10 -2 0
-4 -4 -4 -10z"/>
<path d="M730 3640 c-74 -38 -130 -69 -125 -69 6 0 71 31 145 69 74 38 131 69
125 69 -5 0 -71 -31 -145 -69z"/>
<path d="M2445 3689 c-4 -6 -5 -12 -2 -15 2 -3 7 2 10 11 7 17 1 20 -8 4z"/>
<path d="M184 3677 c-6 -16 11 -57 24 -57 5 0 15 6 24 13 14 11 13 15 -13 35
-24 20 -30 21 -35 9z"/>
<path d="M2718 3653 c-16 -2 -28 -9 -28 -15 0 -5 7 -7 16 -4 20 7 54 -10 54
-28 0 -8 7 -19 15 -26 12 -10 13 -16 4 -26 -9 -11 -8 -14 5 -14 10 0 14 5 11
11 -4 6 2 13 14 16 12 3 21 9 21 13 0 8 -78 81 -83 79 -1 -1 -14 -4 -29 -6z"/>
<path d="M3162 3640 c7 -10 14 -18 15 -16 6 6 -9 36 -18 36 -5 0 -4 -9 3 -20z"/>
<path d="M5722 3628 c-18 -18 -14 -36 8 -48 25 -13 40 -5 40 20 0 25 -33 43
-48 28z"/>
<path d="M140 3610 c0 -5 5 -10 11 -10 5 0 7 5 4 10 -3 6 -8 10 -11 10 -2 0
-4 -4 -4 -10z"/>
<path d="M4156 3595 c-11 -8 -16 -18 -12 -22 3 -4 16 3 29 15 24 25 12 29 -17
7z"/>
<path d="M5803 3594 c-7 -20 9 -49 28 -49 22 0 18 59 -4 63 -9 2 -20 -4 -24
-14z"/>
<path d="M5322 3588 c-18 -18 -14 -45 10 -68 42 -39 83 -16 57 32 -12 22 -38
47 -49 48 -4 0 -11 -5 -18 -12z"/>
<path d="M5410 3576 c0 -9 7 -16 16 -16 9 0 14 5 12 12 -6 18 -28 21 -28 4z"/>
<path d="M450 3560 c0 -6 -4 -8 -10 -5 -5 3 -10 1 -10 -5 0 -6 -4 -8 -10 -5
-5 3 -10 1 -10 -4 0 -15 23 -14 45 2 12 10 14 16 7 21 -7 4 -12 2 -12 -4z"/>
<path d="M470 3515 c-47 -24 -80 -44 -75 -44 6 0 48 20 95 44 47 24 81 44 75
44 -5 0 -48 -20 -95 -44z"/>
<path d="M640 3546 c0 -2 7 -9 15 -16 12 -10 15 -10 15 4 0 9 -7 16 -15 16 -8
0 -15 -2 -15 -4z"/>
<path d="M620 3533 c0 -4 5 -15 10 -23 8 -13 10 -13 10 2 0 9 -4 20 -10 23 -5
3 -10 3 -10 -2z"/>
<path d="M348 3516 c-21 -15 -23 -26 -5 -26 22 0 43 18 32 29 -7 6 -16 5 -27
-3z"/>
<path d="M600 3521 c0 -6 4 -13 10 -16 6 -3 7 1 4 9 -7 18 -14 21 -14 7z"/>
<path d="M2639 3503 c-10 -11 -10 -14 -1 -9 6 4 12 2 12 -3 0 -6 5 -11 10 -11
6 0 10 9 10 20 0 24 -13 26 -31 3z"/>
<path d="M3040 3510 c0 -5 3 -11 8 -11 42 -7 62 -6 62 1 0 4 -7 11 -16 14 -24
9 -54 7 -54 -4z"/>
<path d="M575 3500 c3 -5 11 -10 16 -10 6 0 7 5 4 10 -3 6 -11 10 -16 10 -6 0
-7 -4 -4 -10z"/>
<path d="M5445 3500 c3 -5 8 -10 11 -10 2 0 4 5 4 10 0 6 -5 10 -11 10 -5 0
-7 -4 -4 -10z"/>
<path d="M540 3492 c0 -12 19 -26 26 -19 2 2 -2 10 -11 17 -9 8 -15 8 -15 2z"/>
<path d="M512 3478 c2 -6 10 -14 16 -16 7 -2 10 2 6 12 -7 18 -28 22 -22 4z"/>
<path d="M5650 3480 c0 -5 5 -10 10 -10 6 0 10 5 10 10 0 6 -4 10 -10 10 -5 0
-10 -4 -10 -10z"/>
<path d="M5210 3465 c-10 -12 -10 -18 0 -30 7 -8 18 -15 25 -15 7 0 18 7 25
15 10 12 10 18 0 30 -7 8 -18 15 -25 15 -7 0 -18 -7 -25 -15z"/>
<path d="M350 3460 c-8 -5 -86 -42 -173 -81 -87 -40 -156 -73 -154 -75 4 -4
303 131 342 154 11 6 16 11 10 12 -5 0 -17 -5 -25 -10z"/>
<path d="M485 3460 c3 -5 11 -10 16 -10 6 0 7 5 4 10 -3 6 -11 10 -16 10 -6 0
-7 -4 -4 -10z"/>
<path d="M5321 3456 c-15 -18 -3 -46 19 -46 10 0 21 7 24 16 6 16 -9 44 -24
44 -4 0 -13 -6 -19 -14z"/>
<path d="M460 3445 c0 -8 4 -15 10 -15 5 0 7 7 4 15 -4 8 -8 15 -10 15 -2 0
-4 -7 -4 -15z"/>
<path d="M430 3443 c0 -4 5 -15 10 -23 8 -13 10 -13 10 2 0 9 -4 20 -10 23 -5
3 -10 3 -10 -2z"/>
<path d="M654 3425 c-18 -14 -18 -14 4 -8 12 3 22 9 22 14 0 12 -3 11 -26 -6z"/>
<path d="M398 3423 c6 -2 10 -9 7 -14 -4 -5 1 -6 9 -3 20 8 11 24 -12 23 -11
0 -12 -2 -4 -6z"/>
<path d="M5129 3423 c0 -4 -2 -16 -4 -26 -2 -13 2 -17 13 -15 20 4 23 39 5 46
-7 2 -13 0 -14 -5z"/>
<path d="M110 3400 c0 -5 5 -10 11 -10 5 0 7 5 4 10 -3 6 -8 10 -11 10 -2 0
-4 -4 -4 -10z"/>
<path d="M370 3400 c0 -5 5 -10 11 -10 5 0 7 5 4 10 -3 6 -8 10 -11 10 -2 0
-4 -4 -4 -10z"/>
<path d="M5389 3394 c-10 -13 -10 -17 1 -24 18 -11 30 -3 30 21 0 23 -13 25
-31 3z"/>
<path d="M76 3385 c4 -8 10 -12 15 -9 11 6 2 24 -11 24 -5 0 -7 -7 -4 -15z"/>
<path d="M336 3386 c3 -9 11 -16 16 -16 13 0 5 23 -10 28 -7 2 -10 -2 -6 -12z"/>
<path d="M590 3390 c-9 -6 -10 -10 -3 -10 6 0 15 5 18 10 8 12 4 12 -15 0z"/>
<path d="M5466 3391 c-4 -5 -2 -12 3 -15 5 -4 12 -2 15 3 4 5 2 12 -3 15 -5 4
-12 2 -15 -3z"/>
<path d="M300 3384 c0 -17 17 -36 24 -26 3 5 -1 15 -9 22 -8 7 -15 9 -15 4z"/>
<path d="M5216 3375 c-6 -17 16 -31 33 -21 13 9 2 36 -14 36 -7 0 -16 -7 -19
-15z"/>
<path d="M270 3362 c0 -5 7 -13 16 -16 10 -4 14 -1 12 6 -5 15 -28 23 -28 10z"/>
<path d="M250 3351 c0 -6 4 -13 10 -16 6 -3 7 1 4 9 -7 18 -14 21 -14 7z"/>
<path d="M220 3343 c0 -4 5 -15 10 -23 8 -13 10 -13 10 2 0 9 -4 20 -10 23 -5
3 -10 3 -10 -2z"/>
<path d="M190 3326 c0 -8 5 -18 10 -21 6 -3 10 1 10 9 0 8 -4 18 -10 21 -5 3
-10 -1 -10 -9z"/>
<path d="M1130 3330 c-9 -6 -10 -10 -3 -10 6 0 15 5 18 10 8 12 4 12 -15 0z"/>
<path d="M5634 3319 c-10 -17 13 -36 27 -22 12 12 4 33 -11 33 -5 0 -12 -5
-16 -11z"/>
<path d="M160 3316 c0 -2 7 -9 15 -16 13 -11 14 -10 9 4 -5 14 -24 23 -24 12z"/>
<path d="M140 3301 c0 -5 5 -13 10 -16 6 -3 10 -2 10 4 0 5 -4 13 -10 16 -5 3
-10 2 -10 -4z"/>
<path d="M110 3288 c0 -9 5 -20 10 -23 13 -8 13 5 0 25 -8 13 -10 13 -10 -2z"/>
<path d="M1050 3290 c-9 -6 -10 -10 -3 -10 6 0 15 5 18 10 8 12 4 12 -15 0z"/>
<path d="M4912 3287 c-14 -16 -6 -27 20 -27 13 0 18 6 16 17 -4 22 -22 27 -36
10z"/>
<path d="M86 3275 c4 -8 8 -15 10 -15 2 0 4 7 4 15 0 8 -4 15 -10 15 -5 0 -7
-7 -4 -15z"/>
<path d="M1110 3280 c-9 -6 -10 -10 -3 -10 6 0 15 5 18 10 8 12 4 12 -15 0z"/>
<path d="M50 3266 c0 -2 7 -9 15 -16 13 -11 14 -10 9 4 -5 14 -24 23 -24 12z"/>
<path d="M30 3245 c7 -9 15 -13 17 -11 7 7 -7 26 -19 26 -6 0 -6 -6 2 -15z"/>
<path d="M5122 3248 c5 -15 48 -18 48 -3 0 6 -11 11 -26 13 -18 3 -25 0 -22
-10z"/>
<path d="M5737 3244 c-12 -12 -8 -41 8 -54 20 -17 47 5 43 34 -3 21 -37 34
-51 20z"/>
<path d="M10 3230 c0 -5 5 -10 11 -10 5 0 7 5 4 10 -3 6 -8 10 -11 10 -2 0 -4
-4 -4 -10z"/>
<path d="M5213 3225 c-52 -22 -47 -85 9 -104 26 -9 33 -7 54 14 27 27 26 54
-4 88 -18 20 -18 20 -59 2z"/>
<path d="M500 3204 c0 -14 -5 -34 -11 -46 -14 -27 -9 -29 34 -14 l36 12 -25
37 c-29 44 -34 45 -34 11z"/>
<path d="M635 3200 c-3 -6 1 -7 9 -4 18 7 21 14 7 14 -6 0 -13 -4 -16 -10z"/>
<path d="M5874 3195 c-8 -19 2 -45 16 -45 5 0 10 14 10 30 0 31 -16 41 -26 15z"/>
<path d="M262 3168 c-8 -8 -3 -22 14 -47 29 -42 30 -51 7 -51 -15 0 -16 -2 -3
-10 12 -7 7 -12 -22 -24 -36 -15 -37 -16 -23 -43 16 -30 10 -47 -8 -22 -16 20
-45 31 -52 19 -4 -6 -1 -10 6 -10 8 0 8 -4 1 -13 -8 -10 -1 -29 28 -75 l39
-61 38 15 c69 29 353 177 353 184 0 4 -15 30 -33 56 -35 52 -62 60 -98 28 -9
-8 -23 -14 -31 -13 -7 1 -24 -1 -38 -5 -38 -10 -83 7 -98 36 -14 30 -64 52
-80 36z"/>
<path d="M4957 3163 c-4 -3 -7 -12 -7 -20 0 -15 26 -18 34 -4 7 11 -18 33 -27
24z"/>
<path d="M165 3139 c-12 -19 4 -54 37 -76 44 -31 58 -16 18 20 l-33 30 24 18
24 19 -32 0 c-17 0 -35 -5 -38 -11z"/>
<path d="M5074 3116 c-7 -30 1 -46 25 -46 36 0 57 52 25 64 -29 11 -44 6 -50
-18z"/>
<path d="M880 3080 c-9 -6 -10 -10 -3 -10 6 0 15 5 18 10 8 12 4 12 -15 0z"/>
<path d="M5627 3076 c-7 -19 11 -32 24 -19 6 6 5 14 -4 22 -12 9 -16 8 -20 -3z"/>
<path d="M4731 3066 c-8 -10 -9 -16 -1 -21 5 -3 13 1 16 10 9 22 -1 29 -15 11z"/>
<path d="M754 3054 c-18 -14 -18 -14 6 -3 31 14 36 19 24 19 -6 0 -19 -7 -30
-16z"/>
<path d="M5636 3033 c-16 -9 -34 -28 -40 -44 -5 -16 -13 -29 -17 -29 -14 0 32
-80 51 -90 31 -16 58 4 65 48 3 20 10 45 16 54 20 37 3 79 -30 77 -9 -1 -29
-8 -45 -16z"/>
<path d="M4576 3009 c-27 -22 -33 -48 -16 -79 7 -14 7 -25 -1 -38 -14 -22 -6
-50 16 -58 20 -8 45 13 45 40 1 12 14 29 33 42 25 16 32 26 30 50 -2 31 -34
64 -63 64 -9 0 -29 -9 -44 -21z"/>
<path d="M4710 3006 c0 -20 5 -26 21 -26 15 0 20 5 17 22 -5 34 -38 37 -38 4z"/>
<path d="M4747 2953 c-14 -13 -7 -33 11 -33 24 0 32 8 25 26 -5 15 -25 19 -36
7z"/>
<path d="M5350 2931 c0 -14 53 -71 67 -71 7 0 17 8 22 18 12 22 -3 42 -31 42
-10 0 -18 5 -18 10 0 6 -9 10 -20 10 -11 0 -20 -4 -20 -9z"/>
<path d="M4786 2888 c-54 -12 -99 -41 -129 -85 -27 -40 -52 -117 -42 -133 3
-5 1 -11 -4 -14 -11 -7 19 -73 62 -135 40 -59 109 -91 198 -91 116 0 160 25
203 116 31 65 40 119 27 159 -5 17 -10 24 -10 18 -1 -7 -6 -13 -12 -13 -5 0
-7 5 -4 10 3 6 -1 10 -10 10 -15 0 -15 2 -1 15 12 13 13 21 4 40 -14 31 -28
32 -28 3 -1 -67 -141 -300 -165 -276 -3 2 17 40 43 83 59 99 115 223 108 241
-3 7 -1 16 4 19 4 3 11 -1 13 -7 4 -9 6 -10 6 -1 2 25 -21 24 -43 -2 -23 -26
-23 -26 -22 -3 1 19 -6 25 -44 34 -75 18 -113 21 -154 12z m-17 -66 c-19 -20
-42 -48 -52 -62 -17 -24 -17 -24 -6 -2 11 24 77 102 86 102 3 0 -10 -17 -28
-38z"/>
<path d="M4420 2860 c0 -13 5 -20 13 -17 6 2 12 10 12 17 0 7 -6 15 -12 18 -8
2 -13 -5 -13 -18z"/>
<path d="M5307 2825 c-8 -18 11 -31 25 -17 11 11 3 32 -12 32 -4 0 -10 -7 -13
-15z"/>
<path d="M4380 2790 c-12 -8 -12 -10 3 -16 21 -8 35 2 21 16 -5 5 -15 6 -24 0z"/>
<path d="M4456 2793 c-2 -3 -2 -12 1 -21 4 -9 2 -13 -4 -9 -15 10 -24 -18 -10
-32 6 -6 14 -11 19 -11 11 0 41 61 33 68 -8 8 -32 11 -39 5z"/>
<path d="M5385 2790 c-3 -6 1 -13 10 -16 19 -8 30 0 20 15 -8 14 -22 14 -30 1z"/>
<path d="M5571 2791 c-10 -7 -10 -10 -1 -16 6 -4 16 -3 22 3 13 13 -4 23 -21
13z"/>
<path d="M78 2754 c-38 -19 -68 -39 -68 -45 0 -6 4 -9 8 -7 62 25 162 75 162
81 0 15 -37 5 -102 -29z"/>
<path d="M5119 2764 c-9 -11 -10 -20 -3 -32 28 -44 74 -41 74 7 0 41 -45 57
-71 25z"/>
<path d="M690 2730 c-8 -5 -10 -10 -5 -10 6 0 17 5 25 10 8 5 11 10 5 10 -5 0
-17 -5 -25 -10z"/>
<path d="M5534 2689 c-10 -17 13 -36 27 -22 12 12 4 33 -11 33 -5 0 -12 -5
-16 -11z"/>
<path d="M5252 2663 c4 -22 43 -25 43 -3 0 8 -11 16 -23 18 -19 3 -23 0 -20
-15z"/>
<path d="M5386 2643 c-11 -11 -6 -23 8 -23 8 0 17 4 20 9 7 10 -19 23 -28 14z"/>
<path d="M5112 2594 c-7 -26 -28 -69 -48 -95 -23 -31 -30 -49 -22 -51 7 -3 20
4 29 15 19 24 43 14 36 -14 -3 -11 -1 -16 4 -13 5 3 25 -8 44 -24 40 -35 73
-48 87 -34 7 7 16 5 29 -7 10 -9 96 -57 191 -106 121 -62 183 -100 209 -128
33 -36 39 -39 72 -33 34 6 38 11 53 62 24 83 0 128 -78 154 -29 9 -38 17 -38
35 0 37 -25 51 -56 30 -15 -10 -23 -22 -20 -31 9 -25 -17 -16 -154 54 -129 64
-135 68 -138 100 -3 28 -10 36 -55 58 -29 15 -60 33 -69 42 -17 14 -18 13 -18
-6 0 -11 -4 -23 -9 -26 -5 -3 -8 9 -7 26 1 22 -4 33 -14 35 -11 3 -19 -10 -28
-43z"/>
<path d="M5715 2631 c-7 -12 12 -24 25 -16 11 7 4 25 -10 25 -5 0 -11 -4 -15
-9z"/>
<path d="M1231 2574 c0 -11 3 -14 6 -6 3 7 2 16 -1 19 -3 4 -6 -2 -5 -13z"/>
<path d="M220 2569 c0 -5 5 -7 10 -4 6 3 10 8 10 11 0 2 -4 4 -10 4 -5 0 -10
-5 -10 -11z"/>
<path d="M4580 2561 c0 -5 5 -13 10 -16 6 -3 10 -2 10 4 0 5 -4 13 -10 16 -5
3 -10 2 -10 -4z"/>
<path d="M320 2530 c-8 -5 -10 -10 -5 -10 6 0 17 5 25 10 8 5 11 10 5 10 -5 0
-17 -5 -25 -10z"/>
<path d="M4494 2505 c-4 -10 -1 -21 7 -26 20 -12 34 -5 34 17 0 24 -33 31 -41
9z"/>
<path d="M50 2453 c0 -17 22 -128 27 -135 5 -9 63 19 63 30 -1 11 -90 115 -90
105z"/>
<path d="M785 2450 c-3 -5 -1 -10 4 -10 6 0 11 5 11 10 0 6 -2 10 -4 10 -3 0
-8 -4 -11 -10z"/>
<path d="M4437 2454 c-13 -13 -7 -44 8 -44 8 0 15 7 15 15 0 8 0 18 1 22 1 10
-16 15 -24 7z"/>
<path d="M420 2409 c0 -5 5 -7 10 -4 6 3 10 8 10 11 0 2 -4 4 -10 4 -5 0 -10
-5 -10 -11z"/>
<path d="M780 2400 c-8 -5 -12 -12 -9 -15 4 -3 12 1 19 10 14 17 11 19 -10 5z"/>
<path d="M339 2363 c-13 -16 -12 -17 4 -4 9 7 17 15 17 17 0 8 -8 3 -21 -13z"/>
<path d="M585 2370 c-3 -6 1 -7 9 -4 18 7 21 14 7 14 -6 0 -13 -4 -16 -10z"/>
<path d="M4862 2369 c2 -6 8 -10 13 -10 5 0 11 4 13 10 2 6 -4 11 -13 11 -9 0
-15 -5 -13 -11z"/>
<path d="M265 2330 c-3 -6 1 -7 9 -4 18 7 21 14 7 14 -6 0 -13 -4 -16 -10z"/>
<path d="M754 2264 c-18 -14 -18 -15 4 -4 12 6 22 13 22 15 0 8 -5 6 -26 -11z"/>
<path d="M5063 2264 c-8 -21 13 -42 28 -27 13 13 5 43 -11 43 -6 0 -13 -7 -17
-16z"/>
<path d="M400 2249 c0 -5 5 -7 10 -4 6 3 10 8 10 11 0 2 -4 4 -10 4 -5 0 -10
-5 -10 -11z"/>
<path d="M4857 2243 c-4 -3 1 -15 10 -26 14 -15 15 -21 5 -24 -24 -9 -43 -62
-38 -106 12 -109 151 -134 201 -37 19 37 19 83 1 119 -22 42 -43 54 -91 53
-32 0 -45 4 -45 14 0 14 -31 20 -43 7z"/>
<path d="M5287 2243 c-26 -26 16 -76 60 -71 34 4 42 31 17 59 -17 18 -64 26
-77 12z"/>
<path d="M116 2231 c-4 -5 3 -7 14 -4 23 6 26 13 6 13 -8 0 -17 -4 -20 -9z"/>
<path d="M205 2230 c-3 -5 -2 -10 4 -10 5 0 13 5 16 10 3 6 2 10 -4 10 -5 0
-13 -4 -16 -10z"/>
<path d="M5170 2225 c0 -8 9 -15 20 -15 11 0 20 7 20 15 0 8 -9 15 -20 15 -11
0 -20 -7 -20 -15z"/>
<path d="M4725 2211 c-3 -5 -1 -12 5 -16 5 -3 10 1 10 9 0 18 -6 21 -15 7z"/>
<path d="M240 2200 c-9 -6 -10 -10 -3 -10 6 0 15 5 18 10 8 12 4 12 -15 0z"/>
<path d="M400 2200 c-8 -5 -10 -10 -5 -10 6 0 17 5 25 10 8 5 11 10 5 10 -5 0
-17 -5 -25 -10z"/>
<path d="M115 2180 c-3 -5 -2 -10 4 -10 5 0 13 5 16 10 3 6 2 10 -4 10 -5 0
-13 -4 -16 -10z"/>
<path d="M5450 2187 c0 -1 7 -34 15 -72 21 -102 -1 -218 -67 -350 -30 -60 -64
-156 -73 -210 -4 -22 -12 -46 -18 -52 -6 -9 -6 -13 1 -13 5 0 13 -19 16 -42 8
-55 20 -73 41 -64 13 4 15 12 10 29 -4 12 -9 51 -12 87 -5 74 6 115 85 305 59
142 68 195 52 304 -10 68 -15 81 -31 81 -11 0 -19 -1 -19 -3z"/>
<path d="M440 2170 c-9 -6 -10 -10 -3 -10 6 0 15 5 18 10 8 12 4 12 -15 0z"/>
<path d="M155 2160 c-8 -13 5 -13 25 0 13 8 13 10 -2 10 -9 0 -20 -4 -23 -10z"/>
<path d="M820 2120 c-8 -5 -12 -12 -9 -15 4 -3 12 1 19 10 14 17 11 19 -10 5z"/>
<path d="M859 2093 l-24 -26 27 19 c15 10 28 22 28 27 0 12 -5 8 -31 -20z"/>
<path d="M4752 2099 c2 -6 8 -10 13 -10 5 0 11 4 13 10 2 6 -4 11 -13 11 -9 0
-15 -5 -13 -11z"/>
<path d="M308 2025 c-98 -66 -123 -87 -89 -78 10 3 22 0 26 -7 8 -13 -25 -41
-39 -32 -11 6 -10 4 35 -103 33 -81 125 -264 139 -279 7 -7 111 73 323 252
l88 74 -88 50 c-48 28 -133 81 -189 119 -56 38 -103 69 -105 69 -2 0 -48 -29
-101 -65z m147 -96 c11 -17 0 -20 -21 -4 -17 13 -17 14 -2 15 9 0 20 -5 23
-11z m-108 -74 c0 -8 -4 -15 -9 -15 -5 0 -6 -6 -2 -12 5 -9 2 -8 -9 1 -13 10
-15 17 -6 27 15 18 26 18 26 -1z m68 5 c4 -7 -3 -8 -22 -4 -38 9 -42 14 -10
14 14 0 29 -5 32 -10z m-5 -87 c0 -7 -39 17 -46 28 -3 6 5 3 20 -6 14 -10 26
-19 26 -22z m-75 -64 c-4 -5 3 -9 14 -9 12 0 21 -5 21 -11 0 -5 -4 -7 -10 -4
-5 3 -10 1 -10 -4 0 -6 8 -11 18 -12 10 0 12 -2 4 -6 -22 -9 -61 24 -55 47 3
11 9 17 14 14 5 -3 7 -10 4 -15z"/>
<path d="M769 2073 c-13 -16 -12 -17 4 -4 9 7 17 15 17 17 0 8 -8 3 -21 -13z"/>
<path d="M625 2070 c-3 -5 -1 -10 4 -10 6 0 11 5 11 10 0 6 -2 10 -4 10 -3 0
-8 -4 -11 -10z"/>
<path d="M906 2064 c-5 -14 -4 -15 9 -4 17 14 19 20 6 20 -5 0 -12 -7 -15 -16z"/>
<path d="M5075 2060 c-10 -17 12 -37 25 -24 8 8 6 15 -4 23 -10 9 -16 9 -21 1z"/>
<path d="M590 2039 c0 -5 5 -7 10 -4 6 3 10 8 10 11 0 2 -4 4 -10 4 -5 0 -10
-5 -10 -11z"/>
<path d="M709 2023 c-13 -17 -13 -17 6 -3 11 8 22 16 24 17 2 2 0 3 -6 3 -6 0
-17 -8 -24 -17z"/>
<path d="M170 2009 c0 -5 5 -7 10 -4 6 3 10 8 10 11 0 2 -4 4 -10 4 -5 0 -10
-5 -10 -11z"/>
<path d="M730 1989 c0 -5 5 -7 10 -4 6 3 10 8 10 11 0 2 -4 4 -10 4 -5 0 -10
-5 -10 -11z"/>
<path d="M5294 1975 c-3 -8 -3 -19 1 -25 10 -16 35 7 28 26 -7 18 -22 18 -29
-1z"/>
<path d="M4826 1961 c-9 -14 4 -41 19 -41 21 0 28 19 15 35 -14 17 -26 19 -34
6z"/>
<path d="M825 1950 c-3 -5 -1 -10 4 -10 6 0 11 5 11 10 0 6 -2 10 -4 10 -3 0
-8 -4 -11 -10z"/>
<path d="M4950 1946 c0 -14 29 -31 38 -22 2 3 2 12 -1 21 -8 19 -37 20 -37 1z"/>
<path d="M3634 1924 c3 -9 6 -20 6 -25 0 -5 9 -9 20 -9 22 0 26 20 8 38 -18
18 -41 15 -34 -4z"/>
<path d="M5102 1928 c6 -18 28 -21 28 -4 0 9 -7 16 -16 16 -9 0 -14 -5 -12
-12z"/>
<path d="M939 1893 c-13 -17 -13 -17 6 -3 11 8 22 16 24 17 2 2 0 3 -6 3 -6 0
-17 -8 -24 -17z"/>
<path d="M5147 1864 c-4 -4 -7 -16 -7 -26 0 -15 6 -19 28 -16 19 2 27 9 27 23
0 20 -33 33 -48 19z"/>
<path d="M3659 1844 c-10 -13 -10 -17 2 -25 25 -15 39 -10 39 16 0 28 -21 33
-41 9z"/>
<path d="M3600 1830 c0 -11 4 -20 8 -20 4 0 8 9 9 20 1 11 -2 20 -8 20 -5 0
-9 -9 -9 -20z"/>
<path d="M3572 1755 c-17 -37 -15 -44 13 -57 30 -13 55 3 55 36 0 48 -49 62
-68 21z"/>
<path d="M3725 1760 c3 -5 8 -10 11 -10 2 0 4 5 4 10 0 6 -5 10 -11 10 -5 0
-7 -4 -4 -10z"/>
<path d="M1266 1744 c-10 -26 -7 -34 14 -34 22 0 27 15 8 23 -10 4 -10 6 0 6
7 1 10 6 7 11 -9 15 -22 12 -29 -6z"/>
<path d="M5126 1728 c-3 -7 -4 -24 -3 -38 2 -31 37 -39 61 -14 15 14 15 19 3
38 -17 24 -55 34 -61 14z"/>
<path d="M1360 1705 c0 -8 7 -15 15 -15 8 0 15 7 15 15 0 8 -7 15 -15 15 -8 0
-15 -7 -15 -15z"/>
<path d="M4390 1684 c0 -9 5 -14 12 -12 18 6 21 28 4 28 -9 0 -16 -7 -16 -16z"/>
<path d="M655 1630 c-3 -5 -1 -10 4 -10 6 0 11 5 11 10 0 6 -2 10 -4 10 -3 0
-8 -4 -11 -10z"/>
<path d="M3640 1600 c0 -11 6 -20 13 -20 19 0 27 10 20 26 -8 21 -33 17 -33
-6z"/>
<path d="M4252 1588 c2 -12 10 -23 18 -23 22 0 19 39 -3 43 -15 3 -18 -1 -15
-20z"/>
<path d="M3530 1561 c0 -6 5 -13 10 -16 6 -3 10 1 10 9 0 9 -4 16 -10 16 -5 0
-10 -4 -10 -9z"/>
<path d="M3637 1564 c-9 -10 -9 -44 1 -44 4 0 14 5 22 10 13 8 13 11 -1 25 -8
8 -18 12 -22 9z"/>
<path d="M3154 1546 c-10 -26 1 -51 21 -51 23 0 32 30 15 50 -16 19 -29 19
-36 1z"/>
<path d="M3563 1541 c1 -22 12 -28 21 -12 3 5 -1 14 -9 21 -11 9 -14 8 -12 -9z"/>
<path d="M4186 1541 c-4 -5 -2 -12 3 -15 5 -3 7 -15 4 -26 -7 -25 8 -26 24 -1
10 15 9 22 -7 36 -11 10 -20 12 -24 6z"/>
<path d="M3036 1527 c-23 -17 -12 -41 30 -68 34 -20 36 -20 54 -4 27 25 25 40
-9 64 -34 24 -50 26 -75 8z"/>
<path d="M2191 1516 c-9 -11 -9 -19 1 -35 15 -24 26 -26 51 -6 18 13 18 14 -2
34 -25 25 -34 26 -50 7z"/>
<path d="M824 1489 c-9 -15 11 -33 30 -26 9 4 13 13 10 22 -7 17 -30 20 -40 4z"/>
<path d="M460 1449 c0 -5 5 -7 10 -4 6 3 10 8 10 11 0 2 -4 4 -10 4 -5 0 -10
-5 -10 -11z"/>
<path d="M740 1446 c-11 -14 -10 -20 5 -36 25 -28 41 -10 23 25 -13 24 -16 25
-28 11z"/>
<path d="M686 1391 c-15 -16 -23 -32 -18 -35 10 -6 23 6 41 42 15 29 10 28
-23 -7z"/>
<path d="M3190 1411 c0 -5 7 -12 16 -15 24 -9 27 -7 10 9 -17 17 -26 19 -26 6z"/>
<path d="M4303 1374 c-8 -21 13 -42 28 -27 13 13 5 43 -11 43 -6 0 -13 -7 -17
-16z"/>
<path d="M2088 1373 c7 -3 16 -2 19 1 4 3 -2 6 -13 5 -11 0 -14 -3 -6 -6z"/>
<path d="M2900 1373 c1 -13 48 -63 60 -63 5 0 10 11 10 25 0 18 -7 28 -26 35
-30 12 -44 13 -44 3z"/>
<path d="M2786 1344 c-16 -15 -13 -34 4 -34 5 0 14 9 20 19 13 26 -3 36 -24
15z"/>
<path d="M3273 1344 c-10 -26 13 -61 39 -61 24 0 24 1 14 38 -11 41 -41 54
-53 23z"/>
<path d="M3356 1303 c-6 -14 -5 -15 5 -6 7 7 10 15 7 18 -3 3 -9 -2 -12 -12z"/>
<path d="M4630 1295 c0 -9 5 -15 11 -13 6 2 11 8 11 13 0 5 -5 11 -11 13 -6 2
-11 -4 -11 -13z"/>
<path d="M5087 1296 c-7 -17 11 -36 35 -36 13 0 18 8 18 25 0 20 -5 25 -24 25
-13 0 -26 -6 -29 -14z"/>
<path d="M4021 1286 c-8 -10 -9 -16 -1 -21 5 -3 13 1 16 10 9 22 -1 29 -15 11z"/>
<path d="M635 1270 c-14 -16 -16 -23 -6 -33 16 -16 45 3 49 32 4 27 -19 28
-43 1z"/>
<path d="M773 1268 c-4 -7 -8 -20 -8 -28 0 -8 -5 -14 -12 -13 -7 2 -18 -7 -24
-20 -11 -20 -11 -21 4 -8 10 7 17 11 17 7 0 -4 11 1 25 10 25 16 33 48 16 59
-5 3 -13 0 -18 -7z"/>
<path d="M1817 1265 c-8 -18 11 -31 25 -17 11 11 3 32 -12 32 -4 0 -10 -7 -13
-15z"/>
<path d="M4707 1236 c-8 -20 20 -43 35 -28 14 14 3 42 -16 42 -7 0 -16 -6 -19
-14z"/>
<path d="M2815 1231 c-9 -16 3 -31 26 -31 14 0 19 6 17 17 -4 20 -33 29 -43
14z"/>
<path d="M1150 1180 c-23 -28 -35 -47 -27 -44 14 5 51 47 71 82 16 27 -4 9
-44 -38z"/>
<path d="M5300 1223 c0 -5 4 -13 8 -20 6 -9 11 -7 20 7 11 17 10 20 -8 20 -11
0 -20 -3 -20 -7z"/>
<path d="M2420 1205 c0 -8 2 -15 4 -15 2 0 6 7 10 15 3 8 1 15 -4 15 -6 0 -10
-7 -10 -15z"/>
<path d="M1987 1203 c-10 -10 -8 -41 3 -48 16 -10 50 14 50 35 0 14 -7 20 -23
20 -13 0 -27 -3 -30 -7z"/>
<path d="M2250 1176 c0 -17 24 -38 33 -29 15 15 6 43 -13 43 -11 0 -20 -6 -20
-14z"/>
<path d="M1800 1169 c0 -6 -7 -8 -15 -5 -15 5 -55 -12 -55 -25 0 -3 25 -6 55
-6 60 0 60 0 45 28 -12 21 -30 26 -30 8z"/>
<path d="M3855 1170 c3 -5 8 -10 11 -10 2 0 4 5 4 10 0 6 -5 10 -11 10 -5 0
-7 -4 -4 -10z"/>
<path d="M3891 1163 c-1 -26 14 -31 23 -7 3 8 2 13 -3 9 -5 -3 -12 1 -14 7 -3
7 -6 3 -6 -9z"/>
<path d="M4121 1166 c-9 -11 -6 -15 19 -18 36 -5 44 0 29 19 -15 17 -34 17
-48 -1z"/>
<path d="M4556 1171 c-3 -5 1 -11 9 -14 9 -4 12 -1 8 9 -6 16 -10 17 -17 5z"/>
<path d="M5243 1165 c0 -7 6 -11 14 -8 16 6 17 -9 1 -25 -7 -7 -9 -12 -6 -12
4 0 15 12 26 28 l20 27 -27 2 c-18 1 -28 -3 -28 -12z"/>
<path d="M2390 1156 c0 -8 5 -18 10 -21 13 -8 42 14 34 26 -9 15 -44 10 -44
-5z"/>
<path d="M4522 1138 c3 -7 13 -15 24 -17 16 -3 17 -1 5 13 -16 19 -34 21 -29
4z"/>
<path d="M4590 1137 c0 -10 -4 -17 -10 -17 -18 0 -10 -21 18 -45 33 -29 41
-30 49 -7 4 9 13 23 20 30 18 18 6 34 -19 27 -12 -4 -27 0 -39 11 -17 16 -19
16 -19 1z"/>
<path d="M2870 1125 c7 -8 16 -12 21 -9 13 8 1 24 -18 24 -13 0 -13 -3 -3 -15z"/>
<path d="M2070 1120 c0 -5 5 -10 11 -10 5 0 7 5 4 10 -3 6 -8 10 -11 10 -2 0
-4 -4 -4 -10z"/>
<path d="M4710 1126 c0 -2 8 -10 18 -17 15 -13 16 -12 3 4 -13 16 -21 21 -21
13z"/>
<path d="M1060 1085 c-24 -24 -53 -41 -90 -51 -54 -16 -160 -76 -160 -92 0
-14 56 -63 63 -55 4 3 37 8 74 10 94 5 143 20 181 56 17 17 32 35 32 39 0 4
-25 8 -55 8 -59 0 -67 9 -42 45 58 84 56 101 -3 40z"/>
<path d="M1932 1111 c-7 -4 -25 -6 -39 -3 -20 4 -24 1 -21 -14 2 -11 11 -18
20 -16 11 2 18 -6 20 -20 3 -24 25 -28 61 -13 10 4 17 3 17 -3 0 -6 -15 -14
-32 -17 -47 -10 -48 -12 -32 -45 9 -16 13 -34 9 -40 -6 -9 7 -14 28 -11 4 0 7
-5 7 -13 0 -8 -12 -17 -26 -20 -25 -7 -25 -8 -8 -21 14 -10 21 -10 26 -2 5 9
12 7 25 -5 16 -17 16 -18 -5 -18 -30 0 -28 -11 8 -35 53 -36 50 -65 -6 -65
-38 0 -42 -9 -18 -46 32 -48 6 -34 -30 16 -29 40 -36 59 -34 87 2 24 -2 38
-11 41 -8 2 -11 0 -7 -6 4 -6 -2 -8 -14 -5 -13 3 -27 -4 -44 -23 -27 -31 -34
-50 -13 -38 17 11 1 -8 -67 -78 -77 -79 -74 -44 3 51 25 30 32 46 23 49 -18 6
-52 43 -52 56 0 7 -33 12 -84 13 -67 2 -85 0 -90 -12 -6 -18 -43 -20 -48 -4
-3 9 -10 8 -25 -2 -16 -10 -27 -10 -45 -2 -21 9 -30 4 -90 -52 -63 -59 -70
-63 -150 -79 -46 -10 -91 -20 -101 -23 -21 -6 49 -64 213 -178 172 -119 545
-315 571 -299 5 3 9 0 9 -5 0 -6 6 -11 13 -11 19 0 113 163 97 168 -22 8 -50
41 -50 61 0 47 67 69 93 31 18 -26 16 -28 106 123 59 100 68 122 59 137 -7 10
-16 16 -22 13 -5 -3 -6 -2 -3 4 4 6 -11 15 -33 22 -44 13 -75 51 -42 51 10 0
22 4 28 10 15 15 55 -16 47 -37 -4 -9 1 -19 10 -25 10 -5 17 -16 17 -23 0 -27
16 -15 54 39 l37 54 -20 58 c-10 33 -22 79 -26 104 -9 61 -35 65 -61 9 -23
-53 -50 -68 -58 -33 -5 19 -1 30 15 43 31 25 19 47 -31 54 -23 3 -49 12 -58
19 -9 8 -28 15 -42 16 -14 1 -26 6 -28 12 -4 12 -32 13 -50 1z m62 -126 c3 -8
1 -15 -3 -15 -5 0 -11 7 -15 15 -3 8 -1 15 3 15 5 0 11 -7 15 -15z m215 -32
c1 -7 -6 -13 -14 -13 -17 0 -18 4 -8 39 6 23 7 23 14 5 4 -10 8 -25 8 -31z
m-179 23 c0 -3 -4 -8 -10 -11 -5 -3 -10 -1 -10 4 0 6 5 11 10 11 6 0 10 -2 10
-4z m5 -84 c-2 -9 -4 -19 -4 -21 -1 -3 -7 4 -15 15 -10 13 -11 21 -3 26 16 10
26 1 22 -20z m82 -7 c18 -18 18 -17 -24 -38 -31 -15 -32 -15 -23 3 6 10 15 22
20 25 6 4 8 11 5 16 -10 14 5 10 22 -6z m-463 -64 c14 -15 15 -24 6 -40 -15
-29 -38 -26 -46 4 -7 27 0 55 14 55 5 0 17 -9 26 -19z m-164 -1 c0 -5 -4 -10
-10 -10 -5 0 -10 5 -10 10 0 6 5 10 10 10 6 0 10 -4 10 -10z m382 -41 c6 -4
-2 -6 -16 -6 -30 0 -30 0 -13 27 11 19 12 19 16 3 2 -10 8 -21 13 -24z m-297
22 c10 -17 -15 -195 -42 -288 -26 -93 -43 -118 -43 -64 0 16 -3 36 -6 44 -3 8
2 21 10 30 16 16 50 197 47 255 -1 31 20 45 34 23z m675 -1 c0 -5 -2 -10 -4
-10 -3 0 -8 5 -11 10 -3 6 -1 10 4 10 6 0 11 -4 11 -10z m-841 -19 c16 -10 7
-45 -11 -39 -12 4 -22 48 -10 48 4 0 13 -4 21 -9z m191 -31 c0 -5 -5 -10 -11
-10 -5 0 -7 5 -4 10 3 6 8 10 11 10 2 0 4 -4 4 -10z m-140 -10 c0 -5 -4 -10
-9 -10 -6 0 -13 5 -16 10 -3 6 1 10 9 10 9 0 16 -4 16 -10z m150 -41 c0 -5 -4
-9 -10 -9 -5 0 -10 7 -10 16 0 8 5 12 10 9 6 -3 10 -10 10 -16z m518 -2 c2
-10 -3 -17 -11 -17 -16 0 -30 24 -19 34 10 10 27 1 30 -17z m-301 -22 c8 -19
8 -25 -1 -25 -21 0 -49 26 -42 38 12 19 30 13 43 -13z m-207 -60 c0 -14 -4
-25 -9 -25 -10 0 -21 36 -13 44 12 13 22 5 22 -19z m220 -61 c0 -8 -5 -12 -10
-9 -6 4 -8 11 -5 16 9 14 15 11 15 -7z m-204 -100 c-5 -13 -10 -14 -18 -6 -6
6 -8 18 -4 28 5 13 10 14 18 6 6 -6 8 -18 4 -28z m257 -10 c3 -4 2 -16 -4 -26
-13 -24 -35 -9 -26 16 7 17 19 21 30 10z"/>
<path d="M3910 1105 c0 -9 6 -12 15 -9 8 4 15 7 15 9 0 2 -7 5 -15 9 -9 3 -15
0 -15 -9z"/>
<path d="M4269 1073 c-13 -16 -12 -17 4 -4 9 7 17 15 17 17 0 8 -8 3 -21 -13z"/>
<path d="M5050 1068 c0 -6 3 -8 7 -5 3 4 12 2 19 -4 15 -12 37 -3 29 12 -9 13
-55 11 -55 -3z"/>
<path d="M4980 1060 c20 -13 33 -13 25 0 -3 6 -14 10 -23 10 -15 0 -15 -2 -2
-10z"/>
<path d="M5017 1043 c-4 -3 -7 -11 -7 -17 0 -6 5 -4 10 4 8 13 10 13 10 -1 0
-21 26 -43 39 -35 6 4 8 13 5 21 -4 8 -11 12 -18 8 -6 -4 -5 1 3 10 12 15 11
17 -11 17 -14 0 -28 -3 -31 -7z"/>
<path d="M4922 1026 l-34 -12 26 -13 25 -14 -22 -17 c-18 -15 -19 -20 -8 -34
20 -23 38 -20 45 9 5 20 12 25 31 22 13 -1 27 -6 31 -10 4 -4 14 -7 23 -7 19
0 -37 49 -56 50 -7 0 -13 6 -13 14 0 22 -11 25 -48 12z"/>
<path d="M1810 1020 c0 -6 7 -10 15 -10 8 0 15 2 15 4 0 2 -7 6 -15 10 -8 3
-15 1 -15 -4z"/>
<path d="M4830 1018 c0 -8 6 -21 14 -27 11 -10 14 -9 12 4 -1 8 -8 21 -14 27
-9 9 -12 8 -12 -4z"/>
<path d="M1827 979 c4 -13 8 -18 11 -10 2 7 -1 18 -6 23 -8 8 -9 4 -5 -13z"/>
<path d="M1613 983 c-7 -2 -13 -11 -13 -19 0 -19 -19 -18 -26 1 -7 17 -30 20
-39 4 -4 -6 0 -9 11 -7 14 2 19 -3 18 -18 -1 -33 38 -23 53 14 7 18 12 32 11
31 -2 0 -9 -3 -15 -6z"/>
<path d="M1631 930 c-17 -17 -31 -35 -31 -40 0 -17 67 -11 90 8 19 16 21 22
11 40 -16 30 -32 28 -70 -8z"/>
<path d="M1500 943 c0 -7 41 -43 49 -43 4 0 6 11 3 25 -3 19 -10 24 -28 23
-13 -1 -24 -4 -24 -5z"/>
<path d="M1775 930 c3 -5 0 -10 -8 -10 -8 0 -20 -7 -27 -15 -10 -12 -7 -12 19
1 17 9 29 20 26 25 -4 5 -8 9 -11 9 -3 0 -2 -4 1 -10z"/>
<path d="M4841 926 c-13 -16 -2 -29 16 -18 7 4 8 13 4 20 -6 10 -10 10 -20 -2z"/>
<path d="M5066 915 c-11 -8 -17 -17 -14 -20 2 -3 13 4 23 15 21 23 18 25 -9 5z"/>
<path d="M1471 894 c0 -11 3 -14 6 -6 3 7 2 16 -1 19 -3 4 -6 -2 -5 -13z"/>
<path d="M4886 885 c-20 -15 -18 -49 4 -52 8 -2 25 5 37 15 l22 17 -23 16
c-18 14 -25 15 -40 4z"/>
<path d="M2600 875 c0 -8 7 -15 15 -15 8 0 15 7 15 15 0 8 -7 15 -15 15 -8 0
-15 -7 -15 -15z"/>
<path d="M2583 813 c-15 -6 -17 -39 -3 -48 14 -9 50 4 50 18 0 16 -31 35 -47
30z"/>
<path d="M2178 573 c-29 -45 -60 -103 -54 -103 6 0 87 132 83 136 -2 3 -15
-13 -29 -33z"/>
<path d="M2031 333 c-16 -27 -44 -68 -60 -92 -32 -46 -39 -65 -20 -59 6 2 24
28 41 58 16 30 41 74 54 98 34 57 23 53 -15 -5z"/>
</g>
</svg>
